<?xml version="1.0" encoding="utf-8"?>
<!-- Generator: Adobe Illustrator 27.5.0, SVG Export Plug-In . SVG Version: 6.00 Build 0)  -->
<svg version="1.1" id="Layer_1" xmlns="http://www.w3.org/2000/svg" xmlns:xlink="http://www.w3.org/1999/xlink" x="0px" y="0px"
	 viewBox="0 0 1000 1000" style="enable-background:new 0 0 1000 1000;" xml:space="preserve">
<style type="text/css">
	.st0{fill:#FFFFFF;}
	.st1{fill-rule:evenodd;clip-rule:evenodd;fill:#221F1F;}
	.st2{fill-rule:evenodd;clip-rule:evenodd;fill:#C99948;}
	
		.st3{clip-path:url(#SVGID_00000042012752641182450150000006281299527596604592_);fill:url(#SVGID_00000069388810776720853310000005749523500634890385_);}
	.st4{fill-rule:evenodd;clip-rule:evenodd;fill:#A81F23;}
	.st5{fill-rule:evenodd;clip-rule:evenodd;}
	.st6{fill-rule:evenodd;clip-rule:evenodd;fill:#FFFFFF;}
	.st7{fill-rule:evenodd;clip-rule:evenodd;fill:#048041;}
	.st8{fill-rule:evenodd;clip-rule:evenodd;fill:#046EB6;}
</style>
<path class="st0" d="M850.93,475.84c0,190.99-176.71,312.62-345.83,312.62c-174.67,0-345.83-121.63-345.83-312.62
	S314.11,132.02,505.1,132.02S850.93,284.85,850.93,475.84z"/>
<g>
	<path class="st1" d="M437.37,848.33c4.78-3.66,9.69-7.2,14.7-10.63c3.59-2.46,7.21-4.85,10.86-7.16
		c-23.04-14.28-47.37-27.07-71.75-39.89c-30.72-16.15-61.54-32.35-90.06-51.61c-16.61,1.6-30.68,1.56-42.35-0.46
		c-12.33-2.13-22.02-6.47-29.22-13.38l-3.92-3.75l5.36-1.5c10.61-2.96,20.79-3.82,30.14-3.4c3.85,0.17,7.56,0.55,11.1,1.1l-1.5-1.24
		c-3.77-3.11-7.54-6.36-11.29-9.76c-18.24-2.85-33.13-6.64-44.74-11.84c-12.19-5.45-20.83-12.46-25.96-21.5l-2.64-4.65l5.58-0.01
		c12.04-0.02,22.87,2.22,32.28,5.56c2.43,0.86,4.76,1.79,7,2.78c-3.01-3.64-5.94-7.38-8.78-11.23v-0.01c-0.98-1.33-1.95-2.67-2.9-4
		l-2.23-3.15c-15.28-5.09-27.53-10.53-36.72-16.69c-9.75-6.53-16.14-13.9-19.13-22.53l-1.74-5.01l5.49,0.91
		c11.69,1.95,21.58,6.15,29.73,11.11c1.29,0.78,2.53,1.58,3.73,2.4c-2.09-3.75-4.13-7.59-6.11-11.49
		c-14.69-7.25-26.27-14.42-34.63-21.88c-8.85-7.9-14.15-16.17-15.79-25.23l-0.94-5.19l5.28,1.66c10.63,3.34,19.35,8.42,26.4,14.02
		c1.95,1.55,3.77,3.14,5.47,4.74c-2.46-6.38-4.73-12.82-6.79-19.31c-13.72-9.57-24.26-18.56-31.45-27.36
		c-7.49-9.17-11.38-18.17-11.5-27.42l-0.07-5.29l4.95,2.44c13.36,6.58,22.81,15.77,29.4,24.74c-1.44-6.85-2.66-13.74-3.67-20.65
		c-11.34-12.25-19.65-23.26-24.69-33.36c-5.23-10.48-6.97-20.07-4.97-29.12l1.14-5.17l4.27,3.38c9.86,7.82,16.49,16.91,20.96,25.69
		c-0.08-2.96-0.11-5.92-0.11-8.88c0.01-4.04,0.09-8.1,0.25-12.15l-0.21,0.04c-7.41-11.47-12.56-21.54-15.16-30.46
		c-2.72-9.3-2.72-17.41,0.27-24.6l2.05-4.91l3.61,4.03c6.25,6.98,10.18,14.47,12.6,21.6c1.03-7.07,2.29-14.13,3.78-21.14
		c0.47-2.22,0.97-4.43,1.48-6.63c-5.17-12.52-8.37-23.28-9.29-32.51c-0.96-9.6,0.54-17.59,4.83-24.17l2.93-4.49l2.8,4.56
		c4.85,7.89,7.33,15.88,8.4,23.29c2.44-7.02,5.13-13.96,8.05-20.82c-2.66-13.05-3.75-24.07-2.92-33.19
		c0.88-9.6,3.87-17.21,9.34-22.96l3.73-3.92l1.9,4.96c2.66,6.97,3.77,13.75,3.91,20.05c1.84-3,3.69-5.94,5.56-8.83
		c2.41-3.73,4.88-7.44,7.41-11.11c-0.33-9.88,0.29-18.17,2.08-24.94c1.95-7.37,5.31-13.01,10.34-17l4.27-3.38l1.14,5.16
		c1.17,5.3,1.37,10.33,0.97,15c1.7-2.1,3.4-4.16,5.12-6.18c4.7-5.55,9.44-10.83,14.23-15.86c0.71-9.51,2.18-17.44,4.65-23.83
		c2.68-6.97,6.55-12.17,11.86-15.63l4.58-2.99l0.62,5.25c0.72,6.14,0.23,11.84-0.96,16.96l-0.06,0.24c3.58-3.17,7.18-6.23,10.8-9.18
		c6.9-5.61,13.84-10.79,20.82-15.58c3.27-10.09,6.89-18.28,11.11-24.58c4.57-6.8,9.88-11.42,16.26-13.84l5.33-2.02l-0.79,5.39
		c-1.09,7.45-3.76,13.9-7.02,19.3l-0.31,0.51c4.18-2.33,8.38-4.55,12.58-6.65c10.08-5.03,20.22-9.44,30.37-13.27
		c4.36-6.61,8.64-11.85,13.02-15.7c4.82-4.24,9.78-6.81,15.1-7.66l5.86-0.94l-2.22,5.24c-1.71,4.05-3.94,7.57-6.41,10.62
		c3.87-1.12,7.74-2.17,11.59-3.15c8.02-2.04,16.03-3.79,24-5.27c5.94-6.68,11.47-11.85,16.79-15.43c5.86-3.95,11.54-6.03,17.27-6.14
		l6.08-0.12l-3.16,4.93c-3.51,5.47-7.91,9.7-12.38,12.94c4.65-0.59,9.26-1.09,13.86-1.53c10.28-0.98,20.44-1.62,30.41-1.98
		l0.01-0.34l0.08,0v0l0.07,0l3.28,0.06h0.03l3.36,0.08c2.18-0.06,4.41-0.1,6.67-0.14l0.06,0v0l0.09,0l0.01,0.34
		c9.96,0.36,20.12,1,30.4,1.98c4.59,0.44,9.22,0.94,13.86,1.53c-4.47-3.24-8.86-7.46-12.38-12.94l-3.16-4.93l6.08,0.12
		c5.73,0.11,11.41,2.2,17.27,6.14c5.32,3.58,10.84,8.74,16.78,15.43c7.97,1.48,15.98,3.23,23.99,5.27
		c3.86,0.98,7.72,2.03,11.59,3.15c-2.47-3.04-4.7-6.57-6.41-10.62l-2.21-5.24l5.85,0.94c5.32,0.85,10.28,3.42,15.1,7.66
		c4.36,3.83,8.63,9.08,13,15.7c10.16,3.83,20.31,8.24,30.39,13.28c4.21,2.11,8.41,4.32,12.58,6.65c-3.4-5.51-6.22-12.13-7.34-19.82
		l-0.79-5.39l5.33,2.02c6.37,2.42,11.68,7.03,16.26,13.84c4.23,6.3,7.85,14.49,11.12,24.6c7.02,4.82,13.97,10,20.81,15.56
		c3.62,2.94,7.22,6,10.8,9.17l-0.06-0.24c-1.18-5.12-1.68-10.82-0.96-16.96l0.62-5.25l4.58,2.99c5.31,3.46,9.18,8.65,11.86,15.63
		c2.46,6.39,3.94,14.32,4.65,23.83c4.78,5.03,9.53,10.31,14.22,15.86c1.72,2.03,3.43,4.09,5.12,6.19c-0.41-4.67-0.21-9.71,0.97-15
		l1.14-5.17l4.27,3.38c5.02,3.99,8.38,9.63,10.33,17c1.79,6.77,2.41,15.06,2.08,24.94c2.53,3.67,5.01,7.38,7.41,11.11
		c1.87,2.89,3.71,5.83,5.54,8.82c0.15-6.29,1.26-13.07,3.92-20.04l1.9-4.96l3.72,3.92c5.47,5.75,8.46,13.35,9.34,22.96
		c0.83,9.13-0.25,20.14-2.92,33.2c2.93,6.85,5.61,13.8,8.05,20.81c1.07-7.4,3.55-15.4,8.4-23.29l2.8-4.56l2.92,4.49
		c4.28,6.58,5.79,14.57,4.83,24.17c-0.92,9.23-4.12,19.99-9.29,32.51c0.51,2.2,1.01,4.41,1.48,6.63c1.49,7.02,2.75,14.07,3.79,21.15
		c2.42-7.12,6.35-14.61,12.6-21.6l3.61-4.03l2.05,4.91c3,7.18,3,15.29,0.27,24.6c-2.61,8.92-7.75,18.99-15.16,30.46l-0.21-0.04
		c0.16,4.05,0.24,8.1,0.24,12.15c0.01,2.96-0.03,5.92-0.1,8.88c4.46-8.78,11.1-17.87,20.96-25.69l4.27-3.38l1.14,5.17
		c2,9.06,0.25,18.64-4.97,29.12c-5.04,10.11-13.35,21.11-24.69,33.36c-1,6.91-2.22,13.79-3.66,20.65
		c6.6-8.97,16.04-18.16,29.41-24.74l4.94-2.44l-0.07,5.29c-0.12,9.25-4.01,18.25-11.5,27.42c-7.19,8.8-17.74,17.79-31.45,27.36
		c-2.07,6.49-4.33,12.94-6.8,19.33c0.51-0.48,1.04-0.97,1.58-1.45c7.68-6.89,17.65-13.35,30.3-17.34l5.29-1.66l-0.95,5.19
		c-1.65,9.07-6.95,17.34-15.8,25.23c-8.36,7.46-19.93,14.63-34.63,21.88c-1.98,3.9-4.02,7.74-6.11,11.49
		c1.19-0.82,2.44-1.62,3.72-2.4c8.14-4.96,18.04-9.15,29.74-11.11l5.5-0.91l-1.75,5.02c-2.99,8.63-9.38,16-19.13,22.52
		c-9.19,6.16-21.44,11.59-36.72,16.69l-2.22,3.14c-0.95,1.33-1.92,2.67-2.91,4.01v0.01c-2.84,3.85-5.78,7.59-8.78,11.23
		c2.24-0.99,4.58-1.92,7.01-2.78c9.42-3.33,20.25-5.57,32.29-5.56l5.58,0.01l-2.64,4.65c-5.14,9.03-13.77,16.04-25.97,21.5
		c-11.6,5.18-26.5,8.99-44.73,11.84c-3.75,3.4-7.52,6.65-11.29,9.76l-1.5,1.24c3.54-0.55,7.25-0.93,11.1-1.1
		c9.34-0.41,19.53,0.44,30.14,3.4l5.37,1.5l-3.93,3.77c-7.2,6.9-16.89,11.23-29.22,13.37c-11.67,2.01-25.74,2.05-42.35,0.46
		c-28.51,19.26-59.34,35.47-90.05,51.61c-24.38,12.82-48.7,25.61-71.74,39.89c3.64,2.31,7.27,4.7,10.86,7.16
		c5.01,3.43,9.91,6.97,14.69,10.63l-1.83,5.63c-10.13,0.78-20.69,1.32-31.41,1.65c-11.61,0.36-23.33,0.48-34.84,0.42v0.01h-0.05
		v-0.01c-11.52,0.06-23.26-0.06-34.88-0.42c-10.71-0.33-21.25-0.87-31.36-1.65L437.37,848.33z M164.09,464.4
		c2.59-6.72,6.34-13.6,11.7-20.2l3.39-4.17l2.29,4.81c4.02,8.43,4.5,18.14,1.8,29.44c-2.59,10.85-8.13,23.2-16.3,37.35l0.49,3.3
		c0.57,3.69,1.21,7.34,1.92,10.97l0.06-0.34c1.5-9.38,4.88-19.59,11.51-29.54l2.97-4.46l2.75,4.58c4.81,8.02,6.25,17.62,4.68,29.07
		c-1.47,10.8-5.64,23.3-12.16,37.75c1.7,5.08,3.55,10.13,5.54,15.15c-0.17-9.41,1.35-19.91,6.05-30.68l2.13-4.88l3.53,4.07
		c6.16,7.12,9.31,16.31,9.84,27.79c0.5,10.82-1.33,23.74-5.12,38.95c1.1,2.05,2.22,4.09,3.37,6.11c-1.32-8.84-1.24-18.8,1.55-29.36
		l1.36-5.11l4.12,3.54c7.2,6.19,11.73,14.85,14.02,26.15c2.16,10.65,2.34,23.7,0.92,39.31l2.02,2.83l2.71,3.72
		c1.25,1.7,2.53,3.38,3.84,5.02c-0.51-1.39-0.99-2.8-1.44-4.25c-2.64-8.51-4.16-18.09-3.63-28.54l0.27-5.27l4.77,2.71
		c9.18,5.2,16.11,13.54,21.28,25.07c4.91,10.95,8.24,24.81,10.43,41.63c4.34,3.43,8.8,6.71,13.35,9.83
		c-1.33-2.04-2.62-4.18-3.83-6.42c-4.84-8.9-8.64-19.43-9.87-31.52l-0.54-5.25l5.13,2.02c9.73,3.84,17.76,11,24.57,21.48
		c6.43,9.9,11.79,22.8,16.49,38.72c29.51,15.44,62.5,27.91,96.39,40.71c32.21,12.17,65.24,24.65,97.03,40.32
		c31.78-15.67,64.81-28.15,97.01-40.32c33.89-12.81,66.88-25.28,96.4-40.72c4.69-15.91,10.05-28.82,16.48-38.72
		c6.81-10.48,14.84-17.64,24.57-21.48l5.14-2.02l-0.54,5.25c-1.23,12.09-5.03,22.62-9.87,31.52c-1.22,2.24-2.5,4.38-3.84,6.42
		c4.56-3.12,9.02-6.39,13.35-9.82c2.19-16.83,5.52-30.69,10.43-41.63c5.17-11.54,12.1-19.87,21.28-25.07l4.78-2.71l0.27,5.27
		c0.61,11.95-1.48,22.74-4.83,32.11l-0.25,0.68c1.31-1.65,2.59-3.32,3.84-5.02c0.62-0.86,1.49-2.03,2.7-3.72l2.02-2.83
		c-1.41-15.61-1.24-28.66,0.92-39.31c2.29-11.3,6.82-19.96,14.02-26.15l4.13-3.54l1.35,5.11c0.57,2.16,1.03,4.29,1.39,6.39
		c-1.34-8.17-1.89-15.52-1.59-22.09c0.53-11.48,3.67-20.67,9.84-27.79l3.53-4.07l2.12,4.88c4.7,10.77,6.22,21.28,6.05,30.68
		c1.99-5.02,3.83-10.07,5.54-15.15c-6.52-14.45-10.69-26.95-12.16-37.75c-1.56-11.45-0.13-21.06,4.68-29.07l2.75-4.58l2.97,4.46
		c6.71,10.08,10.09,20.41,11.56,29.88c0.71-3.63,1.35-7.28,1.92-10.96l0.5-3.32c-8.17-14.15-13.71-26.5-16.3-37.35
		c-2.7-11.31-2.21-21.02,1.81-29.44l2.29-4.81l3.39,4.17c5.36,6.61,9.12,13.49,11.71,20.21c-0.02-1.21-0.04-2.38-0.08-3.5
		c-0.08-2.66-0.19-5.39-0.35-8.18c-8.3-10.24-14.33-19.39-17.83-27.71c-3.76-8.92-4.7-16.94-2.57-24.37l1.46-5.09l4.05,3.62
		c3.91,3.5,7.14,7.23,9.79,11.04c-1.15-6.15-2.48-12.3-3.98-18.41c-10.62-7.5-18.82-14.59-24.47-21.56
		c-6.07-7.49-9.25-14.86-9.37-22.47l-0.09-5.28l4.95,2.42c7.9,3.85,14.16,8.81,19.1,14.02c-2.3-6.45-4.78-12.78-7.42-18.97
		c-11.89-6.1-21.25-12.09-27.99-18.29c-7.24-6.65-11.54-13.6-12.81-21.18l-0.87-5.22l5.26,1.74c8.32,2.75,15.21,6.77,20.83,11.21
		c-1.47-2.64-2.98-5.27-4.52-7.88l-0.47-0.41l-0.73-0.94c-0.02-0.04-1.71-3.36-5.29-9.02c-11.05-3.25-19.93-6.81-26.64-10.95
		c-7.12-4.4-11.86-9.5-14.18-15.61l-1.89-4.96l5.51,0.77c7.65,1.07,14.23,3.54,19.75,6.56c-5.28-6.53-11.54-13.7-18.85-21.23
		c-11.45-1.09-20.85-2.88-28.25-5.65c-7.92-2.96-13.64-7.05-17.21-12.59l-2.91-4.51l5.57-0.3c7.99-0.42,15.18,0.85,21.37,2.88
		c-10.33-8.9-22.07-17.91-35.31-26.61c-9.74,0.76-18.02,0.59-24.93-0.7c-7.55-1.41-13.54-4.15-18.06-8.45l-4.03-3.83l5.5-1.44
		c4.86-1.28,9.59-1.83,14.06-1.87c-3.05-1.63-6.16-3.24-9.32-4.8c-7.73-3.84-15.87-7.52-24.42-11.01
		c-7.85,2.34-14.72,3.67-20.7,3.85c-6.63,0.2-12.22-1.01-16.91-3.81l-4.88-2.92l5.1-2.56c3.88-1.95,7.81-3.19,11.62-3.95
		c-2.99-0.97-6.02-1.91-9.09-2.83c-8.4-2.5-17.13-4.78-26.2-6.81c-7.36,3.41-13.93,5.69-19.86,6.7c-6.52,1.11-12.27,0.69-17.4-1.43
		l-5.27-2.18l4.62-3.25c3.16-2.23,6.47-3.9,9.77-5.14c-4.16-0.64-8.39-1.23-12.67-1.76c-10.22-1.27-20.85-2.23-31.88-2.81
		c-11.03,0.59-21.65,1.54-31.88,2.81c-4.28,0.53-8.51,1.12-12.68,1.76c3.31,1.24,6.62,2.91,9.78,5.13l4.62,3.25l-5.28,2.18
		c-5.13,2.12-10.87,2.54-17.39,1.43c-5.93-1.01-12.5-3.29-19.86-6.7c-9.06,2.03-17.79,4.31-26.2,6.81c-3.06,0.92-6.1,1.85-9.09,2.83
		c3.8,0.75,7.73,2,11.61,3.94l5.11,2.56l-4.89,2.92c-4.69,2.8-10.28,4.01-16.91,3.82c-5.98-0.18-12.85-1.51-20.7-3.85
		c-8.56,3.48-16.7,7.17-24.43,11c-3.16,1.57-6.27,3.17-9.32,4.8c4.48,0.05,9.2,0.6,14.06,1.87l5.5,1.44l-4.03,3.83
		c-4.53,4.3-10.51,7.04-18.06,8.46c-6.9,1.28-15.18,1.45-24.93,0.7c-13.23,8.7-24.97,17.71-35.31,26.61
		c6.19-2.03,13.37-3.3,21.37-2.88l5.57,0.3l-2.91,4.51c-3.57,5.54-9.29,9.63-17.21,12.59c-7.4,2.77-16.8,4.56-28.25,5.64
		c-7.31,7.53-13.57,14.71-18.85,21.24c5.52-3.03,12.1-5.5,19.76-6.57l5.52-0.77l-1.9,4.98c-2.32,6.09-7.06,11.19-14.18,15.59
		c-6.71,4.14-15.59,7.7-26.64,10.95c-3.57,5.66-5.27,8.98-5.29,9.02l-0.73,0.94l-0.46,0.41c-1.54,2.6-3.05,5.24-4.53,7.9
		c5.63-4.45,12.51-8.47,20.83-11.22l5.27-1.73l-0.88,5.21c-1.27,7.58-5.56,14.53-12.8,21.18c-6.74,6.2-16.08,12.19-27.97,18.28
		c-2.69,6.31-5.18,12.64-7.45,18.99c4.94-5.21,11.2-10.17,19.1-14.02l4.96-2.42l-0.09,5.28c-0.13,7.6-3.3,14.99-9.37,22.47
		c-5.65,6.97-13.85,14.05-24.47,21.55c-1.5,6.1-2.83,12.24-3.98,18.41c2.65-3.8,5.87-7.54,9.78-11.03l4.06-3.62l1.45,5.09
		c2.12,7.42,1.19,15.45-2.57,24.36c-3.51,8.32-9.52,17.48-17.83,27.71c-0.16,2.79-0.27,5.52-0.35,8.18
		C164.13,462.03,164.11,463.19,164.09,464.4"/>
	<path class="st1" d="M439.46,850.73c112.99-86.54,270.73-90.44,342.97-188.43c41.23-55.92,67.81-118.89,67.81-192.29
		c0-104.45-50.39-203.79-129.83-264.98c86.52,62.94,131.47,162.19,131.65,260.01c0.12,69.8-22.71,140.08-66.03,198.84
		c-69.41,93.83-188.82,121.8-276.23,188.89C486.61,852.98,462.31,852.49,439.46,850.73"/>
	<path class="st1" d="M832.5,446.07c23.8,29.32,14.58,64.31,14.58,64.31C830.81,482.28,825.08,461.62,832.5,446.07"/>
	<path class="st1" d="M878.38,450.66c-29.94,23.75-28.95,59.8-28.95,59.8C871.74,486.37,882.06,467.37,878.38,450.66"/>
	<path class="st1" d="M829.25,401.42c23.34,20.86,20.68,50.38,20.68,50.38C832.87,431.01,825.38,414.95,829.25,401.42"/>
	<path class="st1" d="M867.13,399.04c-20.75,23.19-14.63,52.25-14.63,52.25C867.01,428.82,872.56,412.08,867.13,399.04"/>
	<path class="st1" d="M806.83,347.66c28.54,13.93,34.6,43,34.6,43C818.97,375.15,807.07,361.68,806.83,347.66"/>
	<path class="st1" d="M848.33,335.8c-16.14,26.27-4.73,53.87-4.73,53.87C853.73,365.14,856.11,347.73,848.33,335.8"/>
	<path class="st1" d="M782.54,299.93c30.32,10,40.64,37.98,40.64,37.98C798.62,325.54,784.85,313.78,782.54,299.93"/>
	<path class="st1" d="M820.09,282.65c-10.9,28.58,5.55,53.8,5.55,53.8C830.96,310.6,830,293.08,820.09,282.65"/>
	<path class="st1" d="M755.77,262.29c26.11,3.63,39.01,24.7,39.01,24.7C772.94,280.6,759.9,273.13,755.77,262.29"/>
	<path class="st1" d="M785.52,242.17c-5.39,24.44,11.06,43.17,11.06,43.17C797.76,263.74,794.85,249.57,785.52,242.17"/>
	<path class="st1" d="M827.15,497.64c20.83,31.28,8.22,65.31,8.22,65.31C821.93,533.55,818.25,512.47,827.15,497.64"/>
	<path class="st1" d="M879.27,511.22c-34.66,17.08-41.9,52.48-41.9,52.48C864.65,544.73,879.05,528.29,879.27,511.22"/>
	<path class="st1" d="M817.06,548.58c14.92,34.17-3.63,65.68-3.63,65.68C805.46,583.12,805.62,561.77,817.06,548.58"/>
	<path class="st1" d="M865.78,569.59c-37.08,11.68-50.14,45.56-50.14,45.56C845.75,600.49,862.72,586.4,865.78,569.59"/>
	<path class="st1" d="M714.55,224.61c26.34-1.41,43.46,16.78,43.46,16.78C735.25,239.28,720.89,234.44,714.55,224.61"/>
	<path class="st1" d="M743.55,197.64c-2.91,24.81,15.35,41.98,15.35,41.98C757.91,218,753.58,204.17,743.55,197.64"/>
	<path class="st1" d="M801.61,590.83c9.49,35.87-13.71,64.48-13.71,64.48C784.82,623.41,788.27,602.3,801.61,590.83"/>
	<path class="st1" d="M846.58,618.34c-38.47,6.43-56.62,38.15-56.62,38.15C821.99,646.14,840.95,634.56,846.58,618.34"/>
	<path class="st1" d="M777.59,632.87c2.15,42.33-30.72,69.55-30.72,69.55C750.98,665.9,759.87,642.92,777.59,632.87"/>
	<path class="st1" d="M819.27,671.76c-44.78-0.06-72,32.27-72,32.27C785.63,698.45,809.48,688.98,819.27,671.76"/>
	<path class="st1" d="M741.22,668.44c-4.31,42.18-40.97,64.65-40.97,64.65C709.86,697.52,722.15,675.98,741.22,668.44"/>
	<path class="st1" d="M779.01,722.92c-42.95-11.98-78.68,11.81-78.68,11.81C738.8,739.57,764.5,736.84,779.01,722.92"/>
	<path class="st1" d="M659.79,186.33c25.28-6.64,46.68,7.64,46.68,7.64C683.77,196.47,668.53,194.64,659.79,186.33"/>
	<path class="st1" d="M681.02,154.27c3.62,24.74,25.86,37.8,25.86,37.8C700.29,171.21,692.49,158.61,681.02,154.27"/>
	<path class="st1" d="M603.38,162.96c18.51-9.27,38.31-1.45,38.31-1.45C624.34,167.11,611.98,168.1,603.38,162.96"/>
	<path class="st1" d="M613.43,134.34c7.98,18.89,28.19,25.6,28.19,25.6C632.1,144.6,623.35,135.93,613.43,134.34"/>
	<path class="st1" d="M542.23,148.96c16.62-11.7,37.57-6.71,37.57-6.71C563.67,150.17,551.64,152.86,542.23,148.96"/>
	<path class="st1" d="M547.03,119.32c11.26,17.55,32.42,21.4,32.42,21.4C567.31,126.87,557.11,119.52,547.03,119.32"/>
	<path class="st1" d="M812.4,306.9l-10.64-9.35c0,0-79.27-155.57-303.15-164.34C599.64,134.65,724.45,160.34,812.4,306.9"/>
	<path class="st2" d="M178.43,446.07c-23.8,29.32-14.57,64.31-14.57,64.31C180.12,482.28,185.84,461.62,178.43,446.07
		 M439.46,850.73c9.55-7.31,19.42-14.02,29.52-20.25c-53.45-33.8-114.16-58.92-166.94-94.78c-33.75,3.39-56.71,0.08-70.12-12.78
		c20.45-5.7,39.25-3.3,53.35,0.79c-8.37-6.32-16.49-12.98-24.28-20.08c-36.79-5.63-59.77-15.05-69.32-31.87
		c23.22-0.04,41.72,8.65,54.15,17.01c-7.37-7.77-14.36-16.03-20.91-24.89c-1.94-2.63-3.84-5.29-5.7-7.97
		c-30.97-10.2-49.33-21.66-54.84-37.56c22.41,3.75,37.93,16.08,46.98,25.72c-6.01-9.49-11.54-19.22-16.54-29.15
		c-29.8-14.58-46.61-28.6-49.65-45.32c24.26,7.64,38.24,24.79,45,35.73c-20.67-44.41-31.36-92.46-31.28-140.27
		c0.08-44.64,9.49-89.56,27.91-131.21c-0.9,1.69-1.5,2.6-1.5,2.6c-5.32-25.85-4.36-43.36,5.55-53.79
		c6.82,17.87,2.94,34.43-0.93,44.33c3.68-7.81,7.68-15.5,11.99-23.04l-3.37,2.96c5.11-8.51,10.34-16.62,15.69-24.34
		c-0.79-20.05,2.26-33.31,11.19-40.4c2.43,10.99,0.44,20.82-2.49,28.32c9.48-12.67,19.27-24.2,29.32-34.69
		c1.32-19.44,5.71-32.02,15.14-38.16c1.35,11.54-1.87,21.41-5.71,28.69c13.78-13.3,27.99-24.77,42.49-34.64
		c6.57-20.63,14.35-33.11,25.75-37.43c-2.48,16.94-13.68,28.4-20.5,33.94c20.2-13.16,40.89-23.29,61.69-31.06
		c8.83-13.6,17.11-21.31,26.41-22.8c-3.73,8.83-10.14,15-15.9,19.07c16.71-5.61,33.43-9.76,49.97-12.8
		c12.09-13.78,22.27-21.1,32.33-21.3c-9.3,14.49-25.34,19.64-30.65,21c23.8-4.26,47.19-6.24,69.54-6.9
		c-1.39-0.07-2.77-0.15-4.18-0.21c2.27,0.03,4.56,0.08,6.86,0.14c2.3-0.06,4.59-0.11,6.86-0.14c-1.41,0.05-2.8,0.13-4.18,0.21
		c22.35,0.67,45.74,2.64,69.54,6.9c-5.32-1.36-21.36-6.5-30.65-21c10.06,0.2,20.23,7.52,32.33,21.3
		c16.53,3.04,33.26,7.19,49.97,12.8c-5.76-4.07-12.17-10.24-15.9-19.07c9.3,1.49,17.58,9.2,26.41,22.8
		c20.8,7.77,41.5,17.92,61.7,31.07c-6.82-5.54-18.04-17-20.52-33.95c11.4,4.32,19.18,16.8,25.75,37.43
		c14.49,9.87,28.71,21.33,42.49,34.63c-3.84-7.27-7.07-17.15-5.71-28.69c9.43,6.14,13.82,18.72,15.14,38.16
		c10.05,10.49,19.85,22.02,29.32,34.69c-2.93-7.5-4.92-17.33-2.49-28.32c8.93,7.09,11.98,20.35,11.19,40.4
		c5.35,7.72,10.58,15.82,15.69,24.34l-3.37-2.96c4.32,7.54,8.32,15.23,11.99,23.04c-3.86-9.9-7.75-26.46-0.93-44.33
		c9.91,10.43,10.88,27.95,5.56,53.79c0,0-0.6-0.92-1.5-2.61c18.42,41.65,27.84,86.58,27.91,131.21
		c0.09,47.82-10.61,95.86-31.28,140.28c6.76-10.94,20.74-28.09,45.01-35.73c-3.05,16.72-19.85,30.74-49.65,45.32
		c-5.01,9.93-10.52,19.67-16.54,29.15c9.04-9.64,24.56-21.97,46.98-25.72c-5.52,15.91-23.88,27.36-54.84,37.56
		c-1.86,2.68-3.76,5.34-5.7,7.97c-6.55,8.85-13.54,17.12-20.91,24.89c12.43-8.37,30.92-17.05,54.15-17.01
		c-9.56,16.82-32.53,26.25-69.33,31.87c-7.79,7.1-15.91,13.76-24.28,20.08c14.1-4.08,32.91-6.48,53.35-0.79
		c-13.41,12.87-36.37,16.17-70.12,12.78c-52.78,35.86-113.47,60.98-166.93,94.77c10.11,6.23,19.97,12.95,29.51,20.26
		c-21.42,1.65-44.12,2.19-65.98,2.07h-0.05C483.58,852.92,460.88,852.38,439.46,850.73 M505.47,810.31
		c-66-32.8-137.81-51.63-196.25-82.48c-9.4-32.45-21.38-52.24-39.5-59.39c2.37,23.29,14.62,40.57,25.11,51.38
		c-11.04-6.5-21.5-13.55-31.24-21.35c-4.3-34.23-13.17-55.92-30.25-65.6c-1.17,23.03,8.02,41.58,16.65,53.72
		c-7.78-7.42-14.98-15.46-21.48-24.28c-1.84-2.49-3.64-5-5.42-7.52c2.99-31.61-0.49-52.55-13.76-63.95
		c-6.24,23.59,1.66,44.03,7.8,55.27c-7.05-10.54-13.57-21.33-19.48-32.4c7.83-30.84,7.61-52.02-3.76-65.13
		c-10.39,23.81-4.54,46.33-0.04,57.79c-7.1-14.09-13.21-28.61-18.17-43.62c13.36-29.3,17-50.31,8.12-65.11
		c-16.05,24.1-12.24,49.83-9.65,60.37c-8.65-27.63-13.43-56.88-13.43-88c0-6.19,0.18-12.35,0.53-18.49
		c16.91-20.65,24.31-36.63,20.45-50.1c-11.46,10.24-16.65,22.57-18.97,32.47c1.65-14.89,4.31-29.59,7.9-44
		c21.74-15.19,33.25-28.44,33.48-42.22c-17.4,8.5-26.45,22.63-30.86,32.36c4.08-14.48,9.12-28.63,15.03-42.37
		c24.23-12.28,37.83-23.97,40.12-37.72c-20.27,6.68-31.6,21.39-36.88,30.42c5.05-11,10.66-21.7,16.82-32.06l0.85-0.75
		c0,0,28.74-56.31,100.42-103.08c19.89,1.68,33.48-0.47,41.55-8.14c-10.71-2.81-20.71-1.87-28.69,0.14
		c14.72-8.73,31.05-16.96,49.1-24.23c16.14,4.94,27.79,5.64,36.01,0.72c-9.86-4.93-20.1-5.02-27.5-4.03
		c16.36-6.13,34.03-11.47,53.13-15.69c15.1,7.14,26.51,9.45,35.52,5.72c-8.57-6.04-18.3-7.63-25.71-7.76
		c19.41-3.8,40.2-6.47,62.47-7.65c22.28,1.19,43.07,3.85,62.48,7.66c-7.41,0.13-17.14,1.72-25.72,7.76
		c9.01,3.73,20.42,1.42,35.52-5.72c19.1,4.22,36.78,9.56,53.13,15.69c-7.4-1-17.63-0.92-27.5,4.03c8.21,4.91,19.86,4.21,36.01-0.73
		c18.04,7.27,34.37,15.51,49.1,24.24c-7.98-2.02-17.99-2.95-28.7-0.14c8.06,7.67,21.66,9.82,41.55,8.14
		c71.67,46.77,100.41,103.08,100.41,103.08l0.85,0.76c6.15,10.36,11.78,21.07,16.83,32.07c-5.29-9.03-16.62-23.75-36.9-30.44
		c2.3,13.75,15.89,25.44,40.13,37.72c5.91,13.73,10.95,27.89,15.03,42.36c-4.41-9.73-13.46-23.86-30.86-32.36
		c0.23,13.79,11.74,27.04,33.48,42.22c3.6,14.42,6.25,29.13,7.9,44.02c-2.31-9.9-7.5-22.24-18.97-32.49
		c-3.85,13.48,3.55,29.45,20.45,50.1c0.35,6.14,0.54,12.31,0.54,18.49c0,31.14-4.79,60.4-13.44,88.04
		c2.59-10.52,6.42-36.27-9.64-60.4c-8.88,14.8-5.24,35.81,8.12,65.11c-4.97,15-11.08,29.53-18.18,43.61
		c4.5-11.46,10.35-33.98-0.04-57.79c-11.37,13.11-11.59,34.3-3.77,65.13c-5.9,11.06-12.42,21.85-19.48,32.4
		c6.14-11.24,14.03-31.68,7.8-55.27c-13.27,11.4-16.75,32.34-13.76,63.95c-1.78,2.52-3.58,5.03-5.42,7.52
		c-6.5,8.81-13.7,16.85-21.49,24.28c8.63-12.14,17.82-30.69,16.65-53.72c-17.08,9.68-25.95,31.38-30.25,65.6
		c-9.73,7.8-20.2,14.84-31.24,21.35c10.49-10.81,22.73-28.08,25.11-51.38c-18.11,7.16-30.09,26.95-39.49,59.39
		C643.27,758.68,571.47,777.51,505.47,810.31 M832.5,446.07c-7.42,15.55-1.7,36.21,14.58,64.31
		C847.08,510.38,856.3,475.4,832.5,446.07 M878.38,450.66c-29.94,23.75-28.95,59.8-28.95,59.8
		C871.74,486.37,882.06,467.37,878.38,450.66 M867.13,399.04c-20.76,23.18-14.63,52.25-14.63,52.25
		C867.01,428.82,872.56,412.08,867.13,399.04 M848.33,335.79c-16.14,26.27-4.74,53.87-4.74,53.87
		C853.73,365.14,856.11,347.74,848.33,335.79 M755.77,262.28c4.13,10.84,17.17,18.31,39.01,24.7
		C794.78,286.99,781.88,265.92,755.77,262.28 M879.27,511.22c-34.66,17.08-41.9,52.48-41.9,52.48
		C864.65,544.73,879.05,528.29,879.27,511.22 M714.54,224.6c6.34,9.84,20.7,14.67,43.46,16.79
		C758.01,241.39,740.89,223.2,714.54,224.6 M132.55,450.66c29.94,23.75,28.94,59.8,28.94,59.8
		C139.19,486.37,128.87,467.37,132.55,450.66 M143.81,399.04c20.75,23.18,14.63,52.25,14.63,52.25
		C143.92,428.82,138.37,412.08,143.81,399.04 M162.6,335.79c-7.77,11.94-5.4,29.35,4.74,53.87
		C167.34,389.66,178.74,362.06,162.6,335.79 M255.16,262.28c-26.11,3.63-39.01,24.7-39.01,24.7
		C237.99,280.59,251.03,273.13,255.16,262.28 M131.66,511.22c0.21,17.06,14.62,33.51,41.9,52.48
		C173.56,563.71,166.32,528.3,131.66,511.22 M296.39,224.6c-26.34-1.41-43.46,16.79-43.46,16.79
		C275.69,239.28,290.05,234.44,296.39,224.6"/>
	<g>
		<defs>
			<path id="SVGID_1_" d="M249.38,851.67c89.61,22.88,176.3,30.52,252.02,30.55h1.22c128.22-0.08,224.7-21.9,249.72-28.15V744.55
				c-230.59,93.46-455.39,10.94-502.96-0.97V851.67z"/>
		</defs>
		<clipPath id="SVGID_00000057844071920554908030000013752974497646608000_">
			<use xlink:href="#SVGID_1_"  style="overflow:visible;"/>
		</clipPath>
		
			<linearGradient id="SVGID_00000006689379514116197520000015695001611463562386_" gradientUnits="userSpaceOnUse" x1="-38.9646" y1="-44.703" x2="-36.0219" y2="-44.703" gradientTransform="matrix(188.1556 -3.6795 -3.6795 -188.1556 7371.3628 -7735.7842)">
			<stop  offset="0" style="stop-color:#C99948"/>
			<stop  offset="0.52" style="stop-color:#F7E49E"/>
			<stop  offset="1" style="stop-color:#C99948"/>
		</linearGradient>
		
			<polygon style="clip-path:url(#SVGID_00000057844071920554908030000013752974497646608000_);fill:url(#SVGID_00000006689379514116197520000015695001611463562386_);" points="
			246.67,743.63 752.15,733.75 755.05,882.17 249.57,892.06 		"/>
	</g>
	<path class="st2" d="M755.63,851.04v-75.09c0,0,15.74-17.72,46.53-7.11c30.78,10.61,60.85,3.96,73.56-15.87l-9.09,29.63
		l24.68,14.17C865.57,839.3,802.69,801.34,755.63,851.04"/>
	<path class="st2" d="M244.98,851.04v-75.09c0,0-15.74-17.72-46.53-7.11c-30.78,10.61-60.85,3.96-73.56-15.87l9.09,29.63
		l-24.69,14.17C135.03,839.3,197.92,801.34,244.98,851.04"/>
	<path class="st4" d="M365.19,850.11v-40.05h29.64v6.77H373.3v8.89h20.02v6.77H373.3v10.85h22.32v6.77H365.19z M399.7,841.95
		l7.72-1.17c0.33,1.48,0.99,2.61,1.99,3.37c1,0.77,2.41,1.16,4.21,1.16c1.99,0,3.48-0.36,4.48-1.09c0.67-0.51,1.01-1.2,1.01-2.06
		c0-0.58-0.19-1.06-0.55-1.44c-0.38-0.36-1.24-0.71-2.56-1.02c-6.2-1.37-10.12-2.62-11.78-3.75c-2.3-1.57-3.45-3.75-3.45-6.54
		c0-2.52,1-4.64,2.98-6.35c1.99-1.72,5.06-2.57,9.23-2.57c3.97,0,6.92,0.65,8.85,1.95c1.93,1.3,3.26,3.23,3.99,5.77l-7.22,1.34
		c-0.31-1.14-0.9-2.01-1.77-2.62s-2.11-0.91-3.72-0.91c-2.03,0-3.49,0.28-4.37,0.85c-0.59,0.4-0.88,0.92-0.88,1.56
		c0,0.55,0.26,1.02,0.77,1.4c0.7,0.51,3.1,1.23,7.19,2.16c4.1,0.93,6.96,2.07,8.58,3.42c1.61,1.36,2.42,3.28,2.42,5.71
		c0,2.66-1.11,4.95-3.34,6.86c-2.22,1.91-5.51,2.87-9.87,2.87c-3.95,0-7.09-0.8-9.4-2.4C401.92,846.85,400.4,844.69,399.7,841.95
		 M446.8,821.08v6.1h-5.26v11.76c0,2.38,0.05,3.77,0.15,4.16c0.1,0.39,0.33,0.72,0.69,0.98c0.36,0.25,0.79,0.38,1.29,0.38
		c0.72,0,1.75-0.24,3.1-0.74l0.64,5.96c-1.78,0.77-3.79,1.15-6.05,1.15c-1.38,0-2.62-0.24-3.73-0.7c-1.11-0.47-1.92-1.07-2.43-1.81
		c-0.52-0.74-0.88-1.74-1.08-3.01c-0.16-0.89-0.24-2.7-0.24-5.44v-12.7h-3.52v-6.1h3.52v-5.76l7.66-4.53v10.29H446.8z
		 M478.79,850.11h-7.1v-4.26c-1.18,1.66-2.59,2.9-4.2,3.74c-1.61,0.83-3.25,1.25-4.88,1.25c-3.35,0-6.21-1.34-8.6-4.04
		c-2.38-2.7-3.57-6.44-3.57-11.26c0-4.92,1.16-8.67,3.48-11.23c2.32-2.56,5.25-3.84,8.79-3.84c3.24,0,6.06,1.35,8.42,4.05v-14.45
		h7.66V850.11z M458.32,835.04c0,3.1,0.43,5.35,1.28,6.74c1.24,2.02,2.96,3.02,5.18,3.02c1.76,0,3.26-0.75,4.49-2.26
		c1.24-1.51,1.85-3.76,1.85-6.76c0-3.35-0.59-5.76-1.8-7.23c-1.2-1.47-2.73-2.21-4.61-2.21c-1.82,0-3.33,0.72-4.57,2.18
		C458.94,829.98,458.32,832.15,458.32,835.04 M486.28,842.45h7.66v7.66h-7.66V842.45z M535.36,850.11h-7.66v-28.99
		c-2.8,2.63-6.1,4.58-9.9,5.84v-6.99c2-0.65,4.17-1.89,6.52-3.73c2.35-1.82,3.95-3.96,4.83-6.39h6.22V850.11z M547.12,840.81
		l7.44-0.82c0.18,1.52,0.65,2.65,1.41,3.38c0.76,0.74,1.76,1.1,3,1.1c1.57,0,2.9-0.74,4.01-2.2c1.1-1.47,1.8-4.51,2.11-9.1
		c-1.93,2.24-4.34,3.35-7.23,3.35c-3.15,0-5.86-1.21-8.15-3.65c-2.28-2.43-3.42-5.59-3.42-9.49c0-4.06,1.2-7.34,3.62-9.82
		c2.41-2.49,5.49-3.73,9.22-3.73c4.05,0,7.39,1.58,9.99,4.72c2.6,3.15,3.9,8.33,3.9,15.54c0,7.32-1.35,12.62-4.06,15.86
		c-2.7,3.25-6.23,4.88-10.57,4.88c-3.13,0-5.64-0.84-7.57-2.52C548.9,846.65,547.66,844.15,547.12,840.81 M564.4,824.01
		c0-2.47-0.57-4.39-1.7-5.75c-1.13-1.36-2.45-2.04-3.93-2.04c-1.42,0-2.59,0.56-3.52,1.68c-0.94,1.12-1.41,2.95-1.41,5.48
		c0,2.58,0.51,4.48,1.53,5.69c1.02,1.2,2.28,1.81,3.81,1.81c1.47,0,2.71-0.58,3.72-1.74C563.9,827.96,564.4,826.26,564.4,824.01
		 M578.23,840.81l7.44-0.82c0.18,1.52,0.65,2.65,1.41,3.38c0.75,0.74,1.76,1.1,3,1.1c1.57,0,2.91-0.74,4.01-2.2
		c1.1-1.47,1.8-4.51,2.1-9.1c-1.93,2.24-4.33,3.35-7.23,3.35c-3.14,0-5.86-1.21-8.15-3.65c-2.28-2.43-3.42-5.59-3.42-9.49
		c0-4.06,1.2-7.34,3.62-9.82c2.41-2.49,5.49-3.73,9.22-3.73c4.06,0,7.39,1.58,9.99,4.72c2.6,3.15,3.91,8.33,3.91,15.54
		c0,7.32-1.35,12.62-4.05,15.86c-2.7,3.25-6.23,4.88-10.57,4.88c-3.13,0-5.64-0.84-7.57-2.52
		C580.01,846.65,578.77,844.15,578.23,840.81 M595.51,824.01c0-2.47-0.57-4.39-1.71-5.75c-1.13-1.36-2.44-2.04-3.93-2.04
		c-1.42,0-2.6,0.56-3.53,1.68c-0.94,1.12-1.41,2.95-1.41,5.48c0,2.58,0.52,4.48,1.53,5.69c1.02,1.2,2.28,1.81,3.81,1.81
		c1.47,0,2.71-0.58,3.72-1.74C595,827.96,595.51,826.26,595.51,824.01 M624.1,850.11v-8.05h-16.33v-6.69l17.32-25.48h6.45v25.45
		h4.98v6.71h-4.98v8.05H624.1z M624.1,835.35v-13.68l-9.15,13.68H624.1z"/>
	<path class="st5" d="M357.88,222.03l2.45,13.1l3.71-0.7c2.85-0.53,4.88-1.47,6.1-2.83c1.22-1.37,1.62-3.14,1.21-5.33
		c-0.41-2.18-1.42-3.69-3.05-4.5c-1.63-0.82-3.87-0.97-6.72-0.43L357.88,222.03z M346.53,268.26l-1.99-10.66l5.42-1.01l-5.97-31.97
		l-5.42,1.01l-1.99-10.66l27.41-5.12c5.58-1.04,10.28-0.35,14.1,2.07c3.82,2.43,6.21,6.23,7.18,11.41
		c0.97,5.21,0.12,9.61-2.57,13.25c-2.68,3.63-6.82,5.97-12.4,7.01l-8.1,1.52l1.66,8.88l5.64-1.05l1.99,10.66L346.53,268.26z
		 M388.3,260.32l-1.19-10.77l4.58-0.51l6.49-33.43l-5.32,0.59l-1.19-10.78l38.08-4.2l1.19,10.77l-5.24,0.58l13.54,31.23l4.66-0.51
		l1.19,10.78l-23.66,2.6l-1.19-10.77l4.81-0.53l-2.97-7.02l-14.82,1.64l-1.21,7.48l4.73-0.52l1.19,10.78L388.3,260.32z
		 M408.4,230.16l10.45-1.15l-7.17-16.48L408.4,230.16z M446.96,253.87l46.05-1.89l-0.88-21.36l-9.18,0.37l-2.82,10.66l-13.92,0.57
		l-1.33-32.49l5.44-0.22l-0.44-10.83l-25.14,1.03l0.44,10.83l5.51-0.23l1.33,32.49l-5.51,0.23L446.96,253.87z M495.89,251.88
		l0.05-10.84l5.51,0.03l0.16-32.52l-5.51-0.03l0.05-10.84l25.16,0.12l-0.05,10.84l-5.44-0.03l-0.16,32.52l13.93,0.07l3.3-10.52
		l9.19,0.04l-0.1,21.38L495.89,251.88z M543.21,251.99l0.85-10.81l4.59,0.36l12.63-31.63l-5.34-0.42l0.85-10.81l38.19,3l-0.85,10.81
		l-5.26-0.41l7.46,33.21l4.67,0.37l-0.85,10.81l-23.73-1.86l0.85-10.81l4.82,0.38l-1.6-7.45l-14.86-1.17l-2.59,7.12l4.75,0.37
		l-0.85,10.81L543.21,251.99z M568.6,226.12l10.48,0.83l-3.95-17.53L568.6,226.12z M616.41,258.95l-7.27-45.16l-4.18-0.69
		l1.77-10.69l22.45,3.73l-1.77,10.69l-4.91-0.82l3.34,27.41l12.08-24.86l-4.94-0.82l1.77-10.69l22.37,3.71l-1.77,10.69l-4.18-0.69
		l-21.4,40.4L616.41,258.95z M650.65,264.85l24.7,5.88l2.51-10.54l-5.59-1.33l7.53-31.64l5.59,1.33L687.9,218l-24.7-5.87
		l-2.51,10.54l5.37,1.28l-7.53,31.64l-5.36-1.28L650.65,264.85z"/>
	<path class="st5" d="M197.83,419.87l10.51-2.63l1.32,5.28l31.55-7.9l-1.32-5.28l10.51-2.63l6.18,24.69l-19.58,13.65l23.6,2.42
		l6.2,24.76l-10.51,2.63l-1.34-5.35l-31.55,7.9l1.34,5.35l-10.51,2.63l-6.07-24.26l10.51-2.63l1.39,5.57l29.13-7.29l-31.27-3.69
		l-1.64-6.55l25.84-17.98l-29.12,7.29l1.41,5.64l-10.52,2.63L197.83,419.87z M245.79,494.65c-4.12,1.36-7.11,3.75-8.98,7.19
		c-1.87,3.43-2.16,7.09-0.89,10.94c1.27,3.85,3.67,6.61,7.19,8.27c3.53,1.66,7.37,1.8,11.52,0.44c4.16-1.37,7.18-3.78,9.05-7.24
		c1.86-3.45,2.17-7.09,0.91-10.92c-1.26-3.83-3.67-6.57-7.24-8.23C253.79,493.43,249.92,493.29,245.79,494.65 M241.12,480.44
		c-3.96,1.31-7.39,3.31-10.3,6.02c-2.91,2.71-5.21,6.01-6.86,9.88c-1.35,3.22-2.06,6.54-2.13,9.97c-0.08,3.43,0.46,6.94,1.64,10.51
		c1.18,3.59,2.83,6.74,4.94,9.46c2.1,2.72,4.65,4.96,7.64,6.75c3.64,2.14,7.44,3.42,11.39,3.87c3.95,0.45,7.9,0.02,11.86-1.29
		c3.96-1.3,7.4-3.31,10.32-6.03c2.93-2.71,5.22-6,6.87-9.89c1.35-3.22,2.05-6.54,2.12-9.97c0.07-3.43-0.49-6.94-1.67-10.53
		c-1.19-3.6-2.82-6.76-4.91-9.45c-2.09-2.7-4.63-4.96-7.63-6.74c-3.64-2.15-7.44-3.46-11.38-3.9
		C249.09,478.68,245.13,479.12,241.12,480.44 M234.97,547.24l9.9-4.41l2.25,5.03l29.7-13.24l-2.25-5.04l9.9-4.41l10.51,23.58
		c1.53,3.44,2.65,6.5,3.36,9.17c0.71,2.66,1,4.95,0.88,6.83c-0.36,5.44-1.89,10-4.57,13.69c-2.7,3.7-6.72,6.73-12.05,9.11
		c-5.29,2.36-10.21,3.3-14.78,2.84c-4.56-0.48-8.98-2.38-13.27-5.72c-1.48-1.17-2.99-2.91-4.49-5.22c-1.52-2.32-3.05-5.19-4.58-8.63
		L234.97,547.24z M282.73,547.87l-29.7,13.24l1.71,3.84c2.29,5.13,5.27,8.46,8.95,9.98c3.69,1.52,7.97,1.2,12.85-0.97
		c4.9-2.18,8.01-5.14,9.35-8.89c1.34-3.75,0.85-8.2-1.44-13.35L282.73,547.87z M259.39,601.98l23.6,42.72l18.71-10.34l-4.57-8.27
		l-10.83,2.2l-7.9-14.3l10.21-5.64l5.19,9.39l10.54-5.83l-5.19-9.39l7.71-4.26l7.9,14.3l-5.98,7.08l4.57,8.27l17.06-9.43
		l-23.6-42.72l-9.49,5.24l2.67,4.83l-28.46,15.73l-2.67-4.83L259.39,601.98z M287.81,652.28l9.04-5.98l3.04,4.6l27.13-17.93
		l-3.04-4.6l9.04-5.98l13.87,20.98l-9.04,5.98l-3-4.54l-27.13,17.93l7.68,11.62l10.58-3.1l5.07,7.67l-17.84,11.79L287.81,652.28z"/>
	<path class="st5" d="M679.72,706.1l4.56,3.35l-7.57,9.13l-14.15-11.72l8.04-9.71c3.59,0.25,6.46,0.04,8.57-0.6
		c2.13-0.64,3.89-1.81,5.31-3.52c1.15-1.4,1.75-2.8,1.79-4.21c0.04-1.4-0.5-2.57-1.59-3.47c-1.04-0.87-2.24-1.15-3.6-0.85
		c-1.36,0.3-2.87,1.17-4.52,2.62l-4.43,3.85c-4.8,4.18-9.28,6.58-13.42,7.16c-4.15,0.58-8.03-0.62-11.63-3.6
		c-3.78-3.13-5.8-7.09-6.08-11.89c-0.28-4.79,1.27-9.22,4.62-13.26c1.77-2.14,3.72-3.72,5.84-4.73c2.11-1.02,4.43-1.46,6.96-1.35
		l-3.84-2.98l7.57-9.13l13.16,10.9l-7.57,9.13c-3.03-0.5-5.56-0.51-7.56-0.06c-2.02,0.45-3.64,1.42-4.84,2.87
		c-1.07,1.29-1.61,2.64-1.62,4.06c-0.01,1.41,0.5,2.54,1.52,3.38c1.03,0.86,2.24,1.11,3.61,0.74c1.38-0.36,3.13-1.42,5.27-3.15
		l3.87-3.3c4.93-4.07,9.44-6.39,13.52-6.94c4.09-0.55,7.89,0.64,11.44,3.58c4.19,3.48,6.46,7.56,6.82,12.28
		c0.36,4.7-1.28,9.25-4.92,13.65c-2.06,2.48-4.34,4.37-6.84,5.65C685.53,705.25,682.76,705.96,679.72,706.1 M715.67,633.48
		c1.36,2.71,1.96,5.33,1.79,7.84c-0.15,2.52-1.07,4.99-2.72,7.42c-2.3,3.36-5.36,5.34-9.23,5.95c-3.86,0.61-7.59-0.3-11.17-2.75
		c-3.68-2.51-5.92-5.68-6.71-9.53c-0.79-3.85,0.03-7.55,2.46-11.11c1.79-2.62,3.93-4.43,6.46-5.44c2.52-1.01,5.3-1.16,8.32-0.47
		l7.75-11.37l-17.23-11.75l-7.15,10.49l4,2.73c-2.64,0.42-5.09,1.41-7.33,2.94c-2.25,1.54-4.22,3.54-5.92,6.03
		c-2.11,3.1-3.61,6.32-4.48,9.64c-0.88,3.32-1.12,6.7-0.74,10.15c0.52,4.23,1.81,8.03,3.85,11.43c2.06,3.4,4.81,6.27,8.27,8.63
		c3.44,2.35,7.12,3.85,11.04,4.52c3.92,0.67,7.93,0.49,12.02-0.57c3.37-0.89,6.44-2.34,9.21-4.37c2.77-2.01,5.22-4.58,7.34-7.69
		c3.85-5.65,5.66-11.59,5.42-17.86c-0.22-6.26-2.48-12.04-6.75-17.33L715.67,633.48z M745.4,623.32l-9.61-5.01l2.55-4.89
		L709.5,598.4l-2.55,4.89l-9.61-5.01l11.73-22.51l9.61,5.01l-2.65,5.09l8.75,4.56l7.4-14.2l-8.75-4.56l-2.65,5.09l-9.62-5.01
		l11.73-22.51l9.61,5.01l-2.55,4.89l28.84,15.03l2.55-4.89l9.61,5.01l-11.73,22.51l-9.61-5.01l2.65-5.09l-10.55-5.49l-7.4,14.2
		l10.55,5.5l2.65-5.09l9.61,5.01L745.4,623.32z M753.03,547.62c4.07,1.52,7.9,1.53,11.5,0.02c3.61-1.51,6.12-4.17,7.55-7.97
		c1.42-3.8,1.28-7.45-0.42-10.96c-1.71-3.51-4.61-6.02-8.7-7.55c-4.1-1.54-7.97-1.55-11.59-0.03c-3.61,1.53-6.13,4.17-7.55,7.94
		c-1.42,3.78-1.25,7.43,0.49,10.96C746.04,543.56,748.96,546.09,753.03,547.62 M747.77,561.63c3.9,1.46,7.83,2.05,11.8,1.76
		c3.97-0.29,7.82-1.42,11.54-3.4c3.06-1.66,5.7-3.81,7.91-6.44c2.22-2.62,3.98-5.7,5.31-9.23c1.33-3.54,2.02-7.03,2.07-10.47
		c0.06-3.43-0.51-6.78-1.73-10.05c-1.49-3.95-3.65-7.32-6.46-10.15c-2.8-2.83-6.15-4.97-10.05-6.43c-3.9-1.46-7.85-2.05-11.82-1.77
		c-3.98,0.29-7.83,1.41-11.55,3.4c-3.06,1.66-5.69,3.81-7.9,6.44c-2.2,2.63-3.97,5.72-5.29,9.26c-1.33,3.55-2.04,7.04-2.1,10.44
		c-0.06,3.42,0.5,6.77,1.72,10.03c1.49,3.96,3.63,7.36,6.43,10.17C740.46,558.01,743.82,560.15,747.77,561.63 M773.1,491.13
		c4.16,1.24,7.98,0.98,11.48-0.78c3.49-1.76,5.81-4.59,6.97-8.48c1.15-3.89,0.75-7.52-1.19-10.9c-1.96-3.38-5.03-5.68-9.21-6.92
		c-4.2-1.25-8.06-0.99-11.56,0.78c-3.5,1.77-5.83,4.59-6.97,8.45c-1.15,3.87-0.74,7.5,1.25,10.9
		C765.84,487.56,768.93,489.89,773.1,491.13 M768.83,505.46c-4.04-1.2-7.55-3.1-10.54-5.71c-2.98-2.61-5.36-5.85-7.12-9.69
		c-1.44-3.18-2.24-6.47-2.42-9.89c-0.18-3.4,0.28-6.93,1.36-10.56c1.08-3.62,2.62-6.83,4.63-9.61c2.02-2.78,4.49-5.11,7.42-6.98
		c3.58-2.25,7.34-3.64,11.29-4.2c3.95-0.56,7.92-0.25,11.92,0.94c3.99,1.19,7.48,3.09,10.48,5.71c2.99,2.62,5.39,5.84,7.15,9.68
		c1.44,3.18,2.25,6.48,2.43,9.9c0.18,3.43-0.26,6.96-1.34,10.58c-1.07,3.61-2.62,6.8-4.65,9.57c-2.02,2.78-4.5,5.1-7.44,6.97
		c-3.57,2.24-7.34,3.64-11.27,4.21S772.83,506.65,768.83,505.46 M811.53,453.69l8.78-45.24l-20.99-4.08l-1.75,9.02l9.73,5.2
		l-2.65,13.67l-31.93-6.2l1.04-5.34l-10.64-2.07l-4.8,24.7l10.64,2.06l1.05-5.41l31.92,6.2l-1.05,5.41L811.53,453.69z"/>
	<path class="st6" d="M755.84,323.98c-103.7-83.99-397.72-70.82-499.62-7.8c-2.23,1.9-2.07,310.54,248.66,463.8
		C775.3,605.85,757.09,331.6,755.84,323.98"/>
	<path class="st6" d="M755.84,323.98c-103.7-83.99-397.72-70.82-499.62-7.8c-2.23,1.9-2.07,310.54,248.66,463.8
		C775.3,605.85,757.09,331.6,755.84,323.98"/>
	<path class="st4" d="M749.61,326.6c-101.13-81.9-387.83-69.07-487.2-7.61c-2.17,1.85-2.03,305.09,242.47,454.54
		C768.58,603.74,750.84,334.03,749.61,326.6"/>
	<path class="st4" d="M749.62,326.6c-101.13-81.9-387.83-69.07-487.2-7.61c-2.18,1.85-2.04,305.09,242.46,454.54
		C768.58,603.74,750.84,334.03,749.62,326.6"/>
	<path class="st4" d="M338.89,600.51c36.09,63.45,88.88,125.89,166,173.02c78.54-50.57,132.1-110,168.58-168.73
		c0.54-1.53,0.81-2.37,0.74-2.37c-0.75,0.04-20.75-3.89-58.1-17.17c-37.35-13.27-76.18-49.57-76.18-49.57l-25.54-28.47l-9.15-8.86
		l-16.12,19.57l-14.47,15.47C426.43,572.49,357.69,594.87,338.89,600.51"/>
	<path class="st7" d="M501.17,269.08c-93.6,1.73-190.65,20.16-238.74,49.91c-1.46,1.24-3.18,137.69,74.73,278.47
		c139.27-42.05,164.46-102.4,164.46-102.4L501.17,269.08z"/>
	<path class="st8" d="M749.61,326.61c-48.93-39.63-141.3-57.07-234.87-57.57l-6.05-0.01l2.13,226.7c0,0,50,85.23,165.65,104.19
		C759.13,462.6,750.46,331.7,749.61,326.61"/>
	<path class="st6" d="M411.42,446.7l10.01-0.06c0,0,5.33-0.06,6.69,5.66l0.12,4.75c0,0-0.16,1.68-1.76,1.51l-11.54-0.11
		c0,0-3.1-9.49-3.15-11.75H411.42z M384.76,364.16c-2.38,5.67-2.79,12.19-1.41,18.35c0.53,2.37,2.57,7.23,3.88,8.77
		c0.58,0.93,1.07,1.8,1.77,2.48c0.45,0.64,0.96,1.68,1.62,1.91l1.46,1.72c0.54,0.44,1.07,1.32,1.77,1.54c0.42,0.83,2.26,2.02,3,2.68
		c0.45,0.33,0.81,0.65,1.27,1c0.49,0.37,0.98,0.61,1.47,0.93c0.69,0.69,1.65,1.09,2.52,1.61c0.48,0.29,0.8,0.51,1.29,0.77
		c0.47,0.24,1.03,0.58,1.42,0.72c0.5,0.23,0.7,0.23,1.13,0.58c0.68,0.16,1.02,0.39,1.83,0.41c-0.06-0.94,0.08-0.22-0.26-0.82
		l-1.44-2.03c-0.14-0.2-0.17-0.25-0.31-0.44c-0.03-0.03-0.06-0.07-0.08-0.11l-0.26-0.31c-0.02-0.02-0.06-0.07-0.09-0.11l-2.4-3.73
		l-2.14-4.07c-0.23-0.89-1.04-2.53-1.66-4.86l-0.26-0.82c-0.13-2.09-0.63-1.97-0.61-6.42c0.03-7.92,4.23-15.28,4.4-16.71
		c0.52-0.58,1.17-2.13,1.61-3.05c0.38-0.79,1.37-2.38,1.5-3.13c0.41-0.32,2.53-4.07,2.96-4.86c0.87-1.34,1.62-2.77,2.52-4.16
		c0.47-0.72,0.8-1.33,1.27-2.08c0.96-1.52,2.88-4.98,3.71-6.57c2.55-4.84,4.89-10.26,3.78-16.5c-0.37-2.09-0.93-3.71-1.53-5.54
		c-0.57-1.73-1.2-3.58-1.97-4.99c-0.18-0.57-0.34-0.94-0.59-1.44c-0.16-0.31-0.19-0.39-0.35-0.72l-0.39-0.69
		c-0.12-0.75-0.92-2.02-1.26-2.69c-0.37-0.74-1.43-2.95-1.89-3.39c-0.17-0.63-0.97-1.89-1.29-2.47c-0.23-0.41-0.41-0.71-0.66-1.12
		c-0.26-0.41-0.44-0.85-0.72-1.17c-0.82-1.36-1.46-2.47-2.33-3.75c-0.44-0.65-0.78-1.16-1.21-1.8c-0.43-0.65-0.76-1.26-1.3-1.69
		l-0.16-0.19v-0.19l-0.19,0.15l0.19,0.04l0.16,0.19c0.12,0.54,0.23,0.56,0.55,1.06c1.29,2.01,2.11,3.26,3.19,5.51l0.88,2.18
		c0.19,0.43,0.03,0.12,0.19,0.36c0.01,0.86,0.67,2.26,0.76,4.92c0.06,1.87,0.03,3.23-0.29,5.16
		C408.14,324.79,388.98,354.1,384.76,364.16 M371.27,478.99l-33.94,22.09l-16.79,11.39l-3.45,1.67
		c11.31,13.07,29.27,21.69,29.33,21.71l10.58-8.66l31.34-25.24l9.14-1.46l18.65-3.58c5.92-0.93,7.91-4.18,7.91-4.18
		c-0.88,1.01-3.3,2.07-3.3,2.07c-3.8,0.89-15.57,1.51-15.57,1.51c-5.48,0.06-7.15-1.35-7.15-1.35c-5.08-6.37-0.09-10.67-0.09-10.67
		c-8.15-5.76-1.25-12.08-1.25-12.08s-9.48,9.43-12.34,11.21c-2.86,1.78-0.65-1.47-0.65-1.47s9.56-10.89,10.95-11.89
		c1.39-1,0.67-2.99,0.67-2.99l-1.34-8.27c-0.14-2.12,0.45-2.11,0.45-2.11c2.93-1.42,5.56-0.72,7.06,5.37
		c1.5,6.09,7.42,5.16,7.42,5.16c5.78-1.29,4.28-7.02,4.28-7.02s-1.61-7.14-3.11-12.51c-1.5-5.36-7.03-4.02-7.03-4.02l-13.93,1.86
		c-5.55,0.14-6.07,4.2-6.07,4.2L371.27,478.99z M374.21,491.43c1.54-0.56,0.16-1.75,0.16-1.75l-3.4-5.32
		c-0.58-2.2,1.46-0.26,1.46-0.26s9.21,12.64,11.32,15.74c2.1,3.1-0.37,1.16-0.37,1.16l-4.07-5.1c-2.17-2.96-3.79-0.79-3.79-0.79
		s-22.01,17.92-26.55,19.02c-4.54,1.1-1.16-1.77-1.16-1.77L374.21,491.43z M402.09,485.14l23.39-0.36c0,0,3.95-0.89,1.89,2.44
		c-2.07,3.33-3.42,4.56-8.51,6.52c0,0-10.02,1.38-16.88,0.83C395.1,494.02,397.33,483.83,402.09,485.14 M426.64,472.08
		c1.24-0.2,1.6,1.34,1.6,1.34s-0.1,5.7-0.26,7.96c-0.16,2.26-2.86,1.92-2.86,1.92l-21.85,0.25c0,0-5.84,0.34-6.69-4.93
		c-0.85-5.27,4.2-6.07,4.2-6.07L426.64,472.08z M415.15,460.21l10.89-0.27c0,0,2.27-0.04,2.26,1.35c-0.01,1.39-0.04,7.6-0.04,7.6
		s-0.3,1.46-1.62,1.58c-1.31,0.13-24.26,0.36-24.26,0.36s-6.13-1.78-2.88-8.52c1.03,5.19,6.22,7.7,10.92,6.5
		C413.94,467.9,414.28,464.81,415.15,460.21 M437.29,409.06c0.01,0.32,0.01,0.64,0.01,0.96c-0.04,6.48-2.05,11.74-4.49,11.71
		l-41.67-0.65c-2.44-0.04-4.4-5.37-4.37-11.84c0-0.32,0.01-0.65,0.02-0.96L437.29,409.06z M416.55,509.61
		c1.91,3.13,5.39,5.15,5.34,12.24c-0.04,7.09-4.77,16.99-10.54,16.9c-5.77-0.09-10.41-10.13-10.36-17.22c0.04-7.09,3.96-9,5.9-12.07
		l0.05-9.4l9.66,0.15L416.55,509.61z M407.23,442.83l0.06-10.82l-9.51-0.15c-1.65-0.02-2.98-3.63-2.96-8.02
		c0-0.22,0.01-0.44,0.01-0.66c11.53,0.18,22.72,0.36,34.25,0.54c0.01,0.21,0.01,0.43,0.01,0.65c-0.02,4.39-1.39,7.96-3.05,7.93
		l-9.08-0.14l-0.06,10.82L407.23,442.83z M432.7,349.39c0.49,0.39,0.94,1.4,1.31,2.06c0.21,0.38,0.37,0.64,0.57,1.02
		c0.26,0.5,0.26,0.65,0.64,1.11c0.08,0.34,0.37,0.84,0.56,1.26c0.26,0.56,0.43,0.76,0.62,1.4c0.36,0.62,1.21,2.53,1.19,3.41
		l0.67,3.02c0.12,0.3,0.25,1.59,0.3,2.9l-0.01,2.24c-0.03,0.38-0.09,0.66-0.16,0.79c-0.01,2.75-1.84,7.72-2.68,9.81
		c-0.34,0.84-0.62,1.25-0.98,2.05c-0.48,1.1-2.52,5.16-3.45,5.67c0.01,0.57-0.33,0.85-1.08,1.82c-0.95,1.23-2.8,3.73-3.85,4.51
		c-0.34,0.63-0.84,1.07-1.32,1.63c-0.5,0.58-0.87,1.17-1.5,1.53c-0.08,0.31,0.05,0-0.14,0.32l-2.65,3.27
		c-0.56,0.63-2.37,3.46-2.64,3.68c-0.11,0.53-0.58,1.34-0.81,1.87c-0.33,0.79-0.35,1.01-0.97,1.49c-0.51-0.9-0.48-1.39-0.47-2.83
		c0.05-8.49,2.41-13.4,5.66-18.85l4.65-7.34c0.3-0.46,0.59-1.06,0.89-1.36c0.54-1.82,7.01-11.35,7.06-20.43
		c0.01-1.28-0.13-2.43-0.4-3.48C433.41,350.78,432.91,350.46,432.7,349.39l-0.09-0.41L432.7,349.39z M424.26,333.61
		c1.14,1,3.64,8.17,4.13,10.43c0.82,3.77,0.4,2.65,0.66,5.05c0.48,4.43-1.43,9.56-3.06,13.32c-1.64,3.79-3.63,6.97-5.86,10.26
		c-0.29,0.44-0.44,0.6-0.72,1.04c-0.35,0.53-1.06,1.7-1.47,2.02c-0.17,0.63-1.02,1.71-1.4,2.32c-1.61,2.58-3.26,5.51-4.34,8.47
		c-0.18,0.48-0.29,0.93-0.44,1.37c-0.23,0.65-0.63,2.08-0.76,2.89c-0.24,1.58-0.33,3.65,0.27,4.98c0.26,0.58,0.39,0.57,0.44,1.37
		c-0.53-0.17-1.57-1.52-1.95-2.07c-0.54-0.8-0.98-1.64-1.4-2.51c-1.91-3.95-2.71-9.52-0.95-13.65c3.09-7.28,7.51-13.48,11.39-20.15
		l2.84-5.01c0.06-0.57,0.67-1.65,0.93-2.25c0.85-1.94,1.82-4.91,2.25-6.99C426.28,337.34,424.35,334.98,424.26,333.61l-0.09-0.41
		L424.26,333.61z"/>
	<path class="st6" d="M675.78,605.8c-112.3-20.51-143.56-76.17-169.36-100.5c-39.54,55.69-138.03,92.22-165.84,98.18
		c-1.9,0.44-3.42-6.01-3.42-6.01c137.64-42.58,164.46-102.41,164.46-102.41l-0.44-225.98l7.52-0.05l2.13,226.7
		c0,0,48.07,81.29,168.12,104.67L675.78,605.8z"/>
	<polygon class="st6" points="654.81,332.84 636.44,410.78 678.39,342.88 643.56,412.88 693.79,356.24 649.75,416.23 709.15,371.61 
		655.49,421.35 722.46,386.86 658.78,425.98 733.02,401 669.8,427.01 595.59,425.89 527.25,398.23 599.8,424.32 546.18,375.78 
		604.55,418.99 561.31,355.6 609.66,415.02 578.33,338.75 615.9,411.98 600.25,325.17 622.38,410.37 628.75,323.81 630.26,410.09 	
		"/>
	<path class="st6" d="M630.56,453.44c5.01,0.08,9.05,4.21,9.02,9.21c-0.03,5.01-4.11,9-9.12,8.93c-5.01-0.08-9.04-4.2-9.02-9.21
		C621.48,457.36,625.56,453.36,630.56,453.44 M629.56,508.91L629.56,508.91c34.72-52.59,78.71-30.39,96.98-69.02
		c-23.63,26.35-88.34,8.71-96.99,68.99c-8.01-60.55-72.88-44.92-96.23-72.01C551.18,476.07,595.4,455.25,629.56,508.91
		L629.56,508.91L629.56,508.91L629.56,508.91z"/>
	<path class="st6" d="M581.25,604.83l-25.96,105.59c0,0-25.43-8.33-37.08-2.35l-10.93-1.09l-3.53-96.2
		C531.55,608.17,553.28,588.91,581.25,604.83"/>
	<path class="st6" d="M426.43,604.74l32,108.34c0,0,22.42-9.43,34.27-3.08l14.57-3.03l-3.45-97.54
		C477.49,606.2,450.2,591.73,426.43,604.74"/>
	<path class="st4" d="M450.2,616.57c-0.13-0.51-0.27-1.03-0.41-1.54c-3.12,0.05-6.15,0.45-9.07,1.2c0.18,0.57,0.36,1.14,0.54,1.71
		c1.98-0.54,3.99-1,6.07-1.27c0.21,0.76,0.44,1.52,0.67,2.27c-0.11-0.03-0.26-0.06-0.46-0.07c-0.19-0.02-0.43-0.04-0.71-0.06
		c-0.28-0.01-0.53-0.03-0.73-0.02c-0.2,0-0.38,0.01-0.53,0.04c-0.51,0.1-0.93,0.33-1.25,0.64c-0.32,0.31-0.57,0.72-0.71,1.21
		c-0.14,0.45-0.2,0.92-0.19,1.43c0.02,0.51,0.11,1.04,0.25,1.61c0.21,0.83,0.48,1.52,0.85,2.04c0.33,0.51,0.76,0.88,1.27,1.07
		c0.18,0.07,0.38,0.11,0.64,0.12c0.24,0.02,0.54,0.01,0.89-0.01c0.17-0.59,0.35-1.18,0.49-1.78c-0.1,0.09-0.26,0.12-0.47,0.1
		c-0.2-0.02-0.44-0.05-0.73-0.12c-0.41-0.11-0.74-0.31-0.99-0.64c-0.26-0.31-0.46-0.75-0.59-1.29c-0.09-0.34-0.12-0.66-0.11-0.96
		c0.01-0.3,0.08-0.57,0.19-0.82c0.11-0.24,0.29-0.44,0.49-0.61c0.21-0.15,0.47-0.27,0.78-0.33c0.22-0.04,0.45-0.05,0.69-0.05
		c0.24,0.01,0.5,0.02,0.77,0.06c0.09,0.01,0.18,0.02,0.29,0.04c0.1,0.02,0.21,0.05,0.34,0.09c0.26,0.98,0.5,1.95,0.67,2.92
		c0.17,0.96,0.25,1.91,0.28,2.85c0.45-0.11,0.9-0.23,1.36-0.33c-0.08-1.54-0.28-3.13-0.65-4.7c-0.38-1.6-0.86-3.2-1.33-4.8
		C449.27,616.57,449.74,616.57,450.2,616.57 M461.37,618.48c-0.49-0.14-0.98-0.28-1.46-0.41c0.3,1.37,0.62,2.73,0.87,4.09
		c0.24,1.34,0.35,2.69,0.37,4.01c-0.5-0.09-1-0.19-1.49-0.25c-0.01-0.71-0.02-1.43-0.11-2.15c-0.09-0.72-0.21-1.46-0.34-2.19
		c-0.98-0.17-1.96-0.32-2.94-0.45c0.07,0.39,0.15,0.78,0.23,1.17c0.04,0.23,0.05,0.44,0.04,0.6c0,0.17-0.04,0.31-0.07,0.41
		c-0.13,0.33-0.34,0.59-0.66,0.74c-0.31,0.17-0.71,0.25-1.19,0.25c-0.3-0.01-0.59-0.07-0.84-0.15c-0.25-0.08-0.48-0.19-0.69-0.37
		c-0.25-0.21-0.45-0.46-0.6-0.78c-0.17-0.31-0.29-0.68-0.37-1.09c-0.1-0.47-0.11-0.87-0.01-1.22c0.09-0.34,0.29-0.62,0.58-0.83
		c0.1-0.07,0.23-0.14,0.4-0.18c0.16-0.06,0.36-0.1,0.6-0.13c0.25,0.01,0.52,0.04,0.78,0.05c-0.24-0.93-0.47-1.86-0.71-2.79
		c-1.26-0.13-2.49-0.21-3.72-0.24c-0.14-0.52-0.28-1.04-0.41-1.55c3.76,0.32,7.61,1.07,11.49,2.14
		C461.18,617.6,461.28,618.04,461.37,618.48 M458.92,620.24c-0.19-0.86-0.39-1.72-0.59-2.58c-1.02-0.23-2.04-0.44-3.04-0.62
		c0.22,0.89,0.44,1.79,0.66,2.69C456.93,619.88,457.92,620.05,458.92,620.24 M455.07,622.21c-0.08-0.39-0.16-0.79-0.24-1.18
		c-0.33-0.01-0.67-0.04-1.01-0.05c-0.06,0.02-0.11,0.04-0.16,0.06c-0.05,0.01-0.08,0.04-0.1,0.07c-0.08,0.09-0.12,0.21-0.15,0.36
		c-0.02,0.14,0,0.33,0.04,0.54c0.06,0.32,0.18,0.58,0.36,0.78c0.08,0.1,0.17,0.17,0.28,0.22c0.1,0.04,0.22,0.07,0.34,0.08
		c0.34,0.01,0.54-0.14,0.62-0.43c0.01-0.06,0.02-0.11,0.02-0.19C455.07,622.38,455.07,622.3,455.07,622.21 M472.91,622.5
		c-0.05-0.42-0.11-0.83-0.16-1.25c-3.91-1.4-7.87-2.84-11.84-4.14c0.09,0.44,0.18,0.89,0.27,1.32c0.83,0.24,1.66,0.51,2.5,0.78
		c0.22,0.15,0.41,0.29,0.57,0.42c0.15,0.13,0.28,0.24,0.39,0.34c0.33,0.31,0.59,0.61,0.77,0.89c0.19,0.3,0.31,0.58,0.36,0.85
		c0.04,0.24,0.03,0.44-0.04,0.58c-0.06,0.15-0.18,0.25-0.35,0.31c-0.14,0.05-0.32,0.07-0.52,0.06c-0.19-0.01-0.42-0.05-0.68-0.13
		c-0.16-0.05-0.34-0.12-0.53-0.2c-0.19-0.09-0.39-0.19-0.6-0.31c-0.07-0.04-0.15-0.09-0.24-0.14c-0.09-0.06-0.19-0.12-0.31-0.2
		c0.09,0.46,0.17,0.91,0.24,1.36c0.29,0.14,0.56,0.27,0.86,0.41c0.08,0.38,0.17,0.72,0.24,1.02c0.08,0.29,0.17,0.54,0.26,0.75
		c0.29,0.63,0.68,1.14,1.18,1.55c0.5,0.4,1.14,0.74,1.9,0.99c0.17,0.06,0.33,0.11,0.49,0.16c0.14,0.05,0.29,0.09,0.41,0.12
		c0.14,0.03,0.23,0.06,0.3,0.09c0.08,0.02,0.12,0.03,0.14,0.03c0.08-0.47,0.15-0.94,0.22-1.42c-0.06,0-0.13,0.01-0.22,0.01
		c-0.08,0.01-0.18,0.01-0.29-0.01c-0.1,0-0.2-0.01-0.31-0.04c-0.11-0.02-0.22-0.04-0.33-0.08c-0.45-0.16-0.85-0.34-1.18-0.56
		c-0.34-0.22-0.61-0.46-0.82-0.73c-0.13-0.18-0.24-0.35-0.31-0.54c-0.09-0.19-0.15-0.39-0.16-0.6c0-0.03-0.01-0.08-0.02-0.14
		c0-0.06,0-0.11,0-0.17c0.33,0.1,0.64,0.15,0.94,0.14c0.28-0.01,0.55-0.07,0.79-0.2c0.24-0.11,0.4-0.3,0.49-0.55
		c0.09-0.24,0.11-0.54,0.05-0.92c-0.1-0.59-0.38-1.17-0.84-1.74c-0.07-0.09-0.16-0.19-0.27-0.3c-0.11-0.11-0.23-0.23-0.37-0.36
		c1.34,0.48,2.69,0.96,4.03,1.46c0.14,0.92,0.29,1.84,0.42,2.75c-0.77-0.28-1.55-0.57-2.31-0.85c0.06,0.42,0.13,0.84,0.18,1.25
		c0.76,0.27,1.52,0.55,2.29,0.84c0.07,0.6,0.13,1.2,0.16,1.79c0.04,0.59,0.04,1.19,0.04,1.77c0.5,0.19,1.01,0.38,1.51,0.57
		c-0.01-1.24-0.07-2.5-0.21-3.76c-0.14-1.26-0.33-2.54-0.51-3.81C471.98,622.16,472.44,622.33,472.91,622.5 M476.99,623.86
		c-0.46-0.14-0.93-0.3-1.39-0.45c0.14,1.28,0.29,2.57,0.4,3.86c0.11,1.27,0.15,2.55,0.16,3.81c-0.49-0.19-1-0.39-1.49-0.57
		c-0.01-1.25-0.06-2.52-0.18-3.78c-0.12-1.27-0.28-2.55-0.44-3.83c-0.45-0.15-0.88-0.3-1.32-0.46c-0.06-0.42-0.12-0.84-0.17-1.26
		c1.44,0.49,2.87,0.96,4.31,1.41C476.91,623.01,476.95,623.44,476.99,623.86 M475.64,622.21c-0.37-0.12-0.73-0.24-1.09-0.36
		c-0.08-0.16-0.34-0.54-0.78-1.15c-0.29-0.4-0.59-0.79-0.87-1.13c-0.29-0.35-0.59-0.67-0.88-0.94c-0.22-0.21-0.45-0.4-0.7-0.56
		c-0.24-0.16-0.49-0.31-0.74-0.43c-0.1-0.04-0.19-0.09-0.3-0.13c-0.1-0.04-0.22-0.09-0.35-0.13c0.13-0.41,0.26-0.83,0.4-1.25
		c0.2,0.11,0.4,0.21,0.6,0.31c0.19,0.1,0.4,0.2,0.61,0.3c0.25,0.19,0.52,0.43,0.82,0.72c0.28,0.28,0.58,0.61,0.88,0.99
		c0.24,0.29,0.49,0.63,0.75,1.02c0.26,0.39,0.52,0.84,0.82,1.33c0.1,0.17,0.22,0.37,0.36,0.61
		C475.3,621.64,475.46,621.91,475.64,622.21 M487.99,625.66c0-0.48-0.01-0.97-0.02-1.46c-3.74-0.1-7.46-0.68-11.21-1.64
		c0.04,0.43,0.09,0.85,0.12,1.27c1.24,0.35,2.47,0.7,3.71,0.99c0.06,0.83,0.12,1.66,0.16,2.49c-0.26-0.06-0.51-0.12-0.77-0.19
		c-0.25-0.03-0.46-0.04-0.63-0.04c-0.18,0-0.33,0.01-0.44,0.03c-0.34,0.07-0.59,0.22-0.75,0.44c-0.15,0.23-0.21,0.54-0.19,0.93
		c0.01,0.35,0.09,0.68,0.22,0.98c0.12,0.31,0.29,0.59,0.52,0.87c0.21,0.24,0.43,0.44,0.68,0.61c0.25,0.17,0.53,0.31,0.84,0.41
		c0.48,0.15,0.89,0.19,1.22,0.13c0.32-0.06,0.56-0.23,0.72-0.5c0.05-0.09,0.09-0.21,0.12-0.36c0.04-0.14,0.06-0.33,0.05-0.55
		c-0.01-0.36-0.02-0.73-0.04-1.1c0.96,0.22,1.91,0.4,2.86,0.57c0.01,0.74,0.03,1.49,0.03,2.24c0.01,0.74,0.01,1.49,0.01,2.23
		c0.49,0.12,0.97,0.22,1.46,0.3c0-1.44,0.01-2.88-0.01-4.32c-0.01-1.44-0.04-2.88-0.07-4.33
		C487.06,625.66,487.53,625.66,487.99,625.66 M485.14,628.18c-0.96-0.15-1.93-0.3-2.89-0.51c-0.04-0.84-0.09-1.68-0.14-2.52
		c0.98,0.19,1.97,0.3,2.95,0.41C485.09,626.44,485.12,627.3,485.14,628.18 M480.93,629.67c-0.01,0.08-0.01,0.15-0.03,0.21
		c-0.02,0.06-0.03,0.11-0.04,0.15c-0.11,0.23-0.33,0.3-0.67,0.2c-0.12-0.04-0.24-0.09-0.34-0.16c-0.1-0.07-0.19-0.17-0.26-0.27
		c-0.15-0.21-0.23-0.47-0.24-0.75c-0.01-0.18,0.01-0.32,0.04-0.44c0.05-0.11,0.12-0.2,0.21-0.25c0.02-0.02,0.06-0.03,0.11-0.03
		c0.05-0.01,0.1-0.01,0.17,0c0.34,0.09,0.67,0.18,1,0.27C480.9,628.96,480.92,629.31,480.93,629.67 M492.06,625.21
		c-0.47,0.07-0.94,0.14-1.41,0.2c-0.01,1.57-0.04,3.13-0.06,4.69c-0.03,1.56-0.06,3.13-0.07,4.68c-0.49-0.04-0.97-0.07-1.46-0.1
		c0-1.5,0.02-3.01,0.04-4.52c0.01-1.51,0.02-3.02,0.01-4.53c-0.44,0.01-0.87,0.01-1.3,0.01c0-0.48-0.01-0.97-0.02-1.45
		c1.42-0.07,2.86-0.32,4.3-0.58C492.08,624.15,492.07,624.68,492.06,625.21"/>
	<path class="st4" d="M515.7,626.65c0-0.51,0-1.03,0-1.54c-2.39-0.05-4.78-0.29-7.16-0.54c0,0.52,0.01,1.04,0.02,1.56
		C510.93,626.38,513.31,626.61,515.7,626.65 M516.77,630.07c0-0.49,0.01-0.99,0.02-1.47c-1.54-0.02-3.08-0.05-4.61-0.14
		c0,0.5,0,0.99,0,1.49c0.24,0.03,0.47,0.05,0.71,0.07c0.11,0.09,0.21,0.16,0.29,0.23c0.08,0.07,0.14,0.14,0.19,0.19
		c0.17,0.2,0.29,0.41,0.38,0.63c0.07,0.23,0.11,0.48,0.11,0.75c0,0.28-0.04,0.52-0.07,0.73c-0.06,0.21-0.14,0.38-0.23,0.53
		c-0.09,0.14-0.24,0.25-0.41,0.31c-0.19,0.07-0.41,0.09-0.67,0.06c-0.33-0.04-0.64-0.2-0.9-0.49c-0.26-0.29-0.49-0.72-0.67-1.26
		c-0.15-0.41-0.27-0.84-0.35-1.29c-0.08-0.44-0.11-0.89-0.09-1.35c0.01-0.25,0.02-0.5,0.03-0.74c-0.45-0.05-0.9-0.1-1.35-0.15
		c0,0.23-0.02,0.45-0.02,0.67c-0.03,0.67,0.02,1.31,0.13,1.9c0.11,0.59,0.26,1.14,0.46,1.64c0.3,0.77,0.69,1.36,1.17,1.78
		c0.48,0.43,1.07,0.71,1.74,0.75c0.84,0.05,1.51-0.22,1.98-0.71c0.24-0.25,0.41-0.53,0.53-0.86c0.13-0.33,0.19-0.7,0.19-1.11
		c0-0.31-0.04-0.6-0.12-0.88c-0.08-0.27-0.21-0.53-0.37-0.77c-0.05-0.08-0.12-0.16-0.21-0.26c-0.09-0.09-0.18-0.19-0.3-0.29
		C515.13,630.06,515.95,630.07,516.77,630.07 M525.26,625.91c-0.45,0.07-0.9,0.13-1.34,0.19c-0.05,1.54-0.08,3.07-0.11,4.6
		c-0.03,1.52-0.05,3.06-0.07,4.59c-0.46,0.08-0.94,0.15-1.42,0.23c0.01-0.94,0.02-1.89,0.03-2.84c-0.13,0.14-0.25,0.25-0.36,0.35
		c-0.1,0.09-0.21,0.18-0.3,0.24c-0.29,0.21-0.59,0.38-0.92,0.51c-0.33,0.11-0.68,0.19-1.03,0.22c-0.74,0.06-1.37-0.04-1.89-0.32
		c-0.52-0.29-0.91-0.74-1.2-1.38c-0.18-0.39-0.31-0.83-0.39-1.3c-0.09-0.48-0.13-0.99-0.13-1.54c0-0.03,0-0.06,0.01-0.09
		c0-0.03,0-0.06,0-0.09c0-0.04,0-0.06-0.01-0.09c0-0.03,0.01-0.06,0.01-0.09c0.03,0.01,0.1,0.04,0.2,0.07
		c0.1,0.03,0.23,0.05,0.41,0.08c0.16,0.04,0.29,0.06,0.4,0.07c0.1,0.01,0.17,0.02,0.2,0.02c0.24-0.01,0.46-0.04,0.64-0.08
		c0.19-0.04,0.33-0.1,0.45-0.17c0.15-0.12,0.29-0.27,0.38-0.46c0.08-0.18,0.13-0.42,0.13-0.7c0-0.17-0.01-0.32-0.04-0.45
		c-0.03-0.13-0.09-0.26-0.15-0.37c-0.06-0.12-0.15-0.21-0.25-0.29c-0.1-0.08-0.2-0.13-0.33-0.18c-0.88,0.02-1.77,0.03-2.65,0.01
		c0-0.52,0-1.03,0.01-1.55c3.25-0.04,6.5-0.27,9.76-0.69C525.28,624.91,525.27,625.41,525.26,625.91 M522.37,630.88
		c0.03-0.76,0.04-1.53,0.05-2.29c0.01-0.76,0.03-1.52,0.04-2.29c-0.89,0.09-1.79,0.16-2.68,0.23c0.09,0.07,0.19,0.16,0.28,0.29
		c0.09,0.11,0.17,0.26,0.25,0.41c0.08,0.16,0.13,0.32,0.17,0.48c0.04,0.16,0.06,0.32,0.06,0.47c0,0.44-0.09,0.81-0.23,1.12
		c-0.15,0.31-0.36,0.57-0.64,0.79c-0.2,0.14-0.42,0.24-0.66,0.33c-0.24,0.08-0.52,0.14-0.83,0.16c-0.18,0.01-0.32,0.01-0.42,0.01
		c-0.1-0.01-0.16-0.02-0.16-0.04c0.05,0.19,0.11,0.38,0.16,0.54c0.05,0.18,0.12,0.36,0.17,0.53c0.21,0.33,0.46,0.57,0.79,0.71
		c0.33,0.14,0.71,0.19,1.17,0.16c0.43-0.04,0.89-0.21,1.35-0.53c0.24-0.16,0.45-0.34,0.64-0.51
		C522.07,631.26,522.24,631.07,522.37,630.88 M529.11,625.2c0.01-0.49,0.02-0.99,0.04-1.48c-1.35,0.26-2.69,0.51-4.03,0.72
		c-0.01,0.5-0.02,0.99-0.04,1.5c0.41-0.06,0.83-0.14,1.24-0.2c-0.05,1.52-0.09,3.03-0.13,4.55c-0.04,1.51-0.06,3.03-0.08,4.54
		c0.48-0.11,0.95-0.21,1.44-0.32c0.01-1.51,0.05-3.02,0.09-4.53c0.04-1.51,0.09-3.01,0.15-4.53
		C528.21,625.38,528.66,625.29,529.11,625.2 M528,623.95c-0.35,0.06-0.69,0.14-1.03,0.2c-0.04-0.16-0.24-0.49-0.59-1
		c-0.25-0.35-0.51-0.66-0.77-0.92c-0.27-0.26-0.54-0.48-0.81-0.66c-0.2-0.14-0.4-0.24-0.63-0.31c-0.21-0.06-0.45-0.11-0.69-0.12
		c-0.08,0-0.17,0-0.26,0c-0.1,0-0.21,0.01-0.33,0.02c0.13-0.58,0.25-1.16,0.38-1.75c0.19,0.03,0.36,0.05,0.54,0.06
		c0.18,0.02,0.36,0.04,0.55,0.05c0.24,0.1,0.49,0.24,0.76,0.44c0.25,0.2,0.52,0.44,0.81,0.72c0.23,0.23,0.45,0.51,0.69,0.86
		c0.24,0.34,0.48,0.73,0.74,1.16c0.09,0.15,0.19,0.32,0.3,0.54C527.74,623.45,527.86,623.68,528,623.95 M538.5,620.79
		c-0.58,0.16-1.17,0.31-1.76,0.47c-0.3-0.27-0.57-0.51-0.83-0.7c-0.24-0.2-0.46-0.36-0.65-0.48c-0.58-0.39-1.13-0.67-1.62-0.82
		c-0.48-0.15-0.93-0.18-1.3-0.1c-0.27,0.06-0.49,0.16-0.68,0.29c-0.19,0.14-0.35,0.32-0.48,0.52c-0.13,0.21-0.23,0.44-0.3,0.69
		c-0.07,0.25-0.12,0.53-0.13,0.82c-0.01,0.27,0.04,0.52,0.1,0.76c0.06,0.23,0.15,0.43,0.27,0.59c0.04,0.06,0.1,0.11,0.17,0.16
		c0.06,0.07,0.14,0.13,0.24,0.2c0.51-0.12,1.03-0.24,1.56-0.37c-0.02,0.49-0.04,0.97-0.06,1.46c-0.44,0.11-0.89,0.22-1.33,0.32
		c-0.06,1.49-0.12,2.99-0.18,4.48c-0.05,1.49-0.08,2.98-0.1,4.46c-0.49,0.13-0.97,0.25-1.45,0.38c0.01-1.49,0.04-2.99,0.09-4.48
		c0.05-1.5,0.11-3,0.16-4.49c-0.41,0.09-0.82,0.18-1.23,0.27c0.02-0.49,0.03-0.99,0.04-1.48c0.33-0.07,0.67-0.14,1-0.21
		c-0.09-0.09-0.16-0.17-0.23-0.26c-0.07-0.08-0.11-0.15-0.15-0.22c-0.14-0.22-0.23-0.47-0.3-0.75c-0.06-0.27-0.09-0.57-0.09-0.88
		c0.01-0.42,0.1-0.82,0.24-1.19c0.14-0.37,0.36-0.71,0.63-1.03c0.28-0.31,0.59-0.57,0.91-0.77c0.33-0.21,0.67-0.36,1.04-0.44
		c0.49-0.11,0.99-0.14,1.51-0.07c0.51,0.07,1.05,0.22,1.6,0.45c0.39,0.16,0.79,0.36,1.17,0.61c0.4,0.25,0.79,0.54,1.19,0.88
		c0.29,0.25,0.53,0.44,0.68,0.6C538.41,620.63,538.49,620.73,538.5,620.79 M541.89,621.93c0.02-0.49,0.05-0.98,0.08-1.47
		c-3.03,0.84-6.04,1.65-9.05,2.41c-0.02,0.49-0.04,0.98-0.06,1.46c2.06-0.51,4.13-1.07,6.22-1.64c-0.04,0.68-0.08,1.37-0.11,2.05
		c-0.1-0.02-0.23-0.02-0.41-0.01c-0.18,0.01-0.4,0.02-0.67,0.04c-0.26,0.01-0.49,0.04-0.7,0.07c-0.21,0.03-0.38,0.07-0.54,0.11
		c-0.52,0.14-0.98,0.36-1.41,0.64c-0.42,0.28-0.79,0.64-1.09,1.06c-0.28,0.39-0.51,0.8-0.65,1.24c-0.16,0.44-0.23,0.9-0.24,1.39
		c-0.03,0.72,0.09,1.31,0.35,1.77c0.26,0.46,0.67,0.79,1.22,0.99c0.17,0.06,0.41,0.11,0.68,0.14c0.27,0.02,0.59,0.03,0.96,0.02
		c0.21-0.56,0.42-1.11,0.65-1.67c-0.11,0.08-0.27,0.12-0.49,0.13c-0.2,0-0.46-0.04-0.75-0.1c-0.39-0.1-0.69-0.29-0.88-0.58
		c-0.19-0.28-0.27-0.66-0.26-1.14c0.01-0.29,0.06-0.57,0.17-0.83c0.11-0.26,0.26-0.49,0.45-0.72c0.19-0.21,0.42-0.39,0.67-0.54
		c0.25-0.15,0.54-0.27,0.86-0.36c0.23-0.06,0.44-0.1,0.69-0.13c0.23-0.02,0.48-0.03,0.73-0.03c0.08,0,0.16,0,0.26,0.01
		c0.09,0.01,0.19,0.02,0.31,0.04c-0.04,0.88-0.09,1.77-0.12,2.65c-0.03,0.88-0.05,1.76-0.05,2.64c0.48-0.13,0.96-0.26,1.45-0.39
		c0.01-1.48,0.06-2.97,0.13-4.45c0.07-1.49,0.17-2.98,0.25-4.46C540.99,622.16,541.44,622.05,541.89,621.93 M551.95,619.56
		c-0.46,0.09-0.9,0.17-1.34,0.26c-0.11,1.56-0.25,3.12-0.34,4.68c-0.1,1.56-0.16,3.12-0.18,4.67c-0.49,0.07-0.99,0.13-1.49,0.2
		c0.03-1.54,0.09-3.08,0.18-4.62c0.1-1.54,0.21-3.09,0.33-4.63c-0.96,0.21-1.91,0.44-2.87,0.67c0.12,0.14,0.21,0.28,0.29,0.41
		c0.08,0.12,0.14,0.24,0.2,0.35c0.15,0.35,0.27,0.72,0.33,1.12c0.06,0.41,0.08,0.85,0.04,1.31c-0.04,0.59-0.11,1.12-0.23,1.59
		c-0.11,0.48-0.26,0.9-0.44,1.27c-0.24,0.47-0.54,0.84-0.9,1.12c-0.36,0.28-0.79,0.47-1.27,0.57c-0.33,0.07-0.63,0.09-0.9,0.04
		c-0.28-0.05-0.53-0.17-0.75-0.36c-0.23-0.19-0.4-0.44-0.5-0.73c-0.1-0.29-0.14-0.63-0.13-1.01c0-0.12,0.02-0.25,0.06-0.41
		c0.04-0.16,0.09-0.34,0.13-0.54c0.02-0.07,0.04-0.15,0.07-0.24c0.03-0.09,0.06-0.19,0.1-0.31c0.46-0.12,0.93-0.24,1.4-0.37
		c-0.05,0.11-0.07,0.21-0.11,0.29c-0.03,0.09-0.06,0.17-0.08,0.22c-0.07,0.2-0.11,0.38-0.16,0.54c-0.03,0.16-0.05,0.31-0.06,0.42
		c0.01,0.22,0.03,0.41,0.07,0.57c0.03,0.16,0.07,0.29,0.14,0.39c0.07,0.14,0.18,0.23,0.3,0.28c0.14,0.04,0.28,0.03,0.46-0.01
		c0.21-0.04,0.41-0.16,0.58-0.35c0.15-0.18,0.28-0.44,0.39-0.77c0.07-0.24,0.13-0.51,0.18-0.83c0.05-0.31,0.1-0.67,0.12-1.07
		c0.03-0.49,0.01-0.95-0.05-1.36c-0.06-0.41-0.17-0.77-0.34-1.1c-0.06-0.1-0.12-0.21-0.2-0.32s-0.2-0.23-0.32-0.35
		c-0.99,0.27-1.98,0.54-2.97,0.8c0.03-0.48,0.06-0.97,0.08-1.46c3.42-0.93,6.85-1.78,10.26-2.5
		C552.02,618.53,551.98,619.04,551.95,619.56 M553.01,613.55c0.02-0.43,0.03-0.85,0.03-1.28c-0.14-0.08-0.33-0.15-0.59-0.2
		c-0.12-0.02-0.23-0.04-0.35-0.04c-0.11,0-0.2,0.01-0.29,0.03c-0.33,0.08-0.65,0.22-0.95,0.41c-0.29,0.19-0.56,0.43-0.81,0.72
		c-0.25,0.29-0.43,0.6-0.57,0.92c-0.12,0.33-0.2,0.67-0.21,1.03c-0.01,0.3,0,0.59,0.04,0.89c0.04,0.29,0.12,0.59,0.22,0.89
		c0.16,0.4,0.29,0.72,0.41,0.96c0.13,0.24,0.24,0.39,0.35,0.47c0.26-0.05,0.54-0.11,0.8-0.16c-0.07-0.16-0.12-0.31-0.16-0.45
		c-0.04-0.13-0.07-0.25-0.1-0.35c-0.07-0.31-0.13-0.59-0.16-0.86c-0.04-0.27-0.04-0.53-0.03-0.76c0.01-0.3,0.05-0.57,0.12-0.82
		c0.07-0.24,0.16-0.47,0.29-0.68c0.11-0.2,0.26-0.37,0.44-0.5c0.18-0.13,0.4-0.23,0.63-0.28c0.06-0.01,0.15-0.02,0.23-0.01
		c0.09,0,0.21,0,0.34,0.02c0.03,0,0.08,0,0.13,0.01C552.9,613.52,552.95,613.53,553.01,613.55 M562.45,618.94
		c0.05-0.58,0.1-1.16,0.15-1.73c-3.53-0.02-7.08,0.27-10.64,0.82c-0.04,0.51-0.07,1.03-0.11,1.54c1.18-0.2,2.36-0.35,3.55-0.5
		c-0.09,1.01-0.17,2.02-0.25,3.03c-0.26,0.02-0.5,0.05-0.76,0.08c-0.24,0.08-0.46,0.16-0.64,0.24c-0.18,0.08-0.32,0.17-0.45,0.25
		c-0.36,0.24-0.63,0.55-0.84,0.92c-0.19,0.36-0.31,0.79-0.34,1.26c-0.03,0.42,0.01,0.8,0.09,1.12c0.08,0.32,0.23,0.59,0.44,0.82
		c0.19,0.19,0.39,0.34,0.63,0.42c0.25,0.09,0.52,0.13,0.83,0.11c0.48-0.02,0.88-0.15,1.21-0.36c0.33-0.21,0.59-0.49,0.77-0.87
		c0.06-0.13,0.12-0.29,0.17-0.48c0.05-0.19,0.09-0.42,0.1-0.69c0.04-0.45,0.06-0.89,0.09-1.34c0.94,0.01,1.86,0.01,2.79,0.02
		c-0.06,0.9-0.14,1.8-0.19,2.7c-0.05,0.89-0.07,1.8-0.09,2.69c0.48,0.04,0.96,0.14,1.42,0.23c0.04-1.72,0.13-3.45,0.26-5.19
		c0.14-1.73,0.3-3.46,0.46-5.2C561.57,618.89,562.01,618.91,562.45,618.94 M559.39,621.98c-0.93,0.01-1.87,0.01-2.8,0.02
		c0.09-1.02,0.17-2.04,0.26-3.06c0.93-0.04,1.87-0.08,2.82-0.12C559.57,619.88,559.49,620.93,559.39,621.98 M554.98,624.95
		c-0.02,0.11-0.04,0.2-0.06,0.28c-0.02,0.09-0.05,0.16-0.07,0.22c-0.13,0.33-0.37,0.5-0.71,0.53c-0.11,0.01-0.23,0-0.33-0.05
		c-0.08-0.03-0.16-0.11-0.23-0.21c-0.12-0.19-0.17-0.46-0.15-0.81c0.02-0.21,0.05-0.41,0.11-0.57c0.06-0.16,0.15-0.31,0.24-0.42
		c0.03-0.03,0.07-0.07,0.12-0.09c0.06-0.03,0.12-0.06,0.17-0.09c0.33-0.03,0.65-0.06,0.99-0.09
		C555.03,624.09,555.01,624.52,554.98,624.95 M571.85,620.95c-0.45-0.13-0.88-0.26-1.31-0.39c-0.2,1.98-0.42,3.97-0.6,5.95
		c-0.17,1.98-0.29,3.97-0.35,5.94c-0.45-0.24-0.91-0.46-1.36-0.7c0.02-1.19,0.08-2.38,0.16-3.58c-0.14,0.1-0.25,0.16-0.38,0.22
		c-0.1,0.05-0.2,0.09-0.3,0.12c-0.29,0.08-0.6,0.09-0.93,0.1c-0.32,0-0.67-0.05-1.02-0.16c-0.72-0.22-1.32-0.61-1.8-1.14
		c-0.48-0.52-0.86-1.16-1.09-1.93c-0.14-0.46-0.24-0.97-0.29-1.51c-0.03-0.54-0.03-1.12,0.02-1.74c0-0.04,0.01-0.07,0.01-0.11
		c0.01-0.04,0.01-0.07,0.01-0.1c0-0.04,0-0.07,0-0.1c0.01-0.03,0.01-0.06,0.04-0.1c0.02,0.01,0.08,0.05,0.18,0.09
		c0.09,0.04,0.23,0.08,0.39,0.12c0.15,0.06,0.29,0.09,0.39,0.13c0.1,0.04,0.16,0.07,0.19,0.08c0.25,0.06,0.46,0.08,0.65,0.08
		c0.18,0,0.34-0.02,0.46-0.08c0.17-0.08,0.31-0.22,0.42-0.42c0.11-0.19,0.17-0.45,0.2-0.78c0.02-0.19,0.03-0.38,0.01-0.55
		c-0.02-0.16-0.07-0.33-0.13-0.49c-0.05-0.16-0.12-0.29-0.21-0.41c-0.08-0.11-0.19-0.21-0.29-0.3c-0.88-0.16-1.75-0.22-2.65-0.27
		c0.06-0.58,0.1-1.16,0.16-1.73c3.23,0.29,6.43,0.88,9.61,1.75C571.98,619.62,571.91,620.28,571.85,620.95 M568.57,625.9
		c0.09-0.96,0.18-1.92,0.27-2.88c0.09-0.96,0.2-1.93,0.3-2.89c-0.87-0.27-1.75-0.47-2.64-0.64c0.1,0.11,0.18,0.25,0.25,0.41
		c0.07,0.17,0.14,0.36,0.2,0.57c0.06,0.21,0.1,0.43,0.12,0.64c0.03,0.21,0.02,0.4,0,0.59c-0.05,0.52-0.16,0.95-0.33,1.29
		c-0.18,0.34-0.41,0.58-0.71,0.74c-0.2,0.1-0.41,0.16-0.67,0.17c-0.24,0.02-0.51-0.01-0.8-0.08c-0.19-0.05-0.33-0.09-0.42-0.13
		c-0.09-0.04-0.15-0.06-0.16-0.09c0.04,0.23,0.08,0.46,0.11,0.68c0.04,0.22,0.08,0.45,0.12,0.67c0.16,0.46,0.39,0.82,0.71,1.12
		c0.3,0.29,0.68,0.5,1.12,0.62c0.43,0.12,0.88,0.08,1.36-0.08c0.24-0.08,0.46-0.16,0.66-0.27
		C568.25,626.21,568.42,626.07,568.57,625.9"/>
</g>
</svg>
