<svg xmlns="http://www.w3.org/2000/svg" width="153.126" height="153.121" viewBox="0 0 153.126 153.121"><defs><style>.a{fill:#dad4cd;}.b{fill:#da6eaf;}.b,.c,.d,.e,.f,.g,.h,.i,.j,.k,.l,.m,.n,.o{fill-rule:evenodd;}.c{fill:#a5ce65;}.d{fill:#d356a4;}.e{fill:#c72b94;}.f{fill:#6db9be;}.g{fill:#53afb5;}.h{fill:#97c74d;}.i{fill:#8dc468;}.j{fill:#81bc23;}.k{fill:#98ccd0;}.l{fill:#bfdb90;}.m{fill:#7c618d;}.n{fill:#a08aac;}.o,.p,.q{fill:#4b4b4d;}.q{font-size:12px;font-family:OpenSans-Light, Open Sans;font-weight:300;}</style></defs><rect class="a" width="153.126" height="153.121"/><path class="b" d="M110.621,74.515a49.819,49.819,0,0,0,18-6.576V54.679a49.763,49.763,0,0,1-22.607-9.068h0A49.81,49.81,0,0,1,73.423,65.624a49.812,49.812,0,0,0,37.2,8.891" transform="translate(24.506 12.556)"/><path class="c" d="M35.659,38.7A49.828,49.828,0,0,1,44.2,2H15.162q.156,2.049.483,4.115A49.81,49.81,0,0,0,35.659,38.7" transform="translate(5.061 -2)"/><path class="d" d="M120.463,24.745a50.148,50.148,0,0,1-13.714-7.021,49.812,49.812,0,0,1-8.894,37.195,49.763,49.763,0,0,0,22.607,9.068Z" transform="translate(32.66 3.248)"/><path class="b" d="M98.135,2a50.01,50.01,0,0,1,8.521,20.972,50.148,50.148,0,0,0,13.714,7.021V2Z" transform="translate(32.754 -2)"/><path class="e" d="M118.238,24.745a50.148,50.148,0,0,1-13.714-7.021,50.148,50.148,0,0,0,13.714,7.021Z" transform="translate(34.887 3.248)"/><path class="f" d="M87.739,71A49.8,49.8,0,0,1,67.728,38.412h0A49.8,49.8,0,0,1,30.53,29.518,49.965,49.965,0,0,0,87.739,71" transform="translate(10.189 7.185)"/><path class="g" d="M78.431,73.779h0a49.81,49.81,0,0,0,32.588-20.013A49.8,49.8,0,0,1,91.007,21.178q-.572.79-1.174,1.555A49.816,49.816,0,0,1,58.419,41.2,49.8,49.8,0,0,0,78.431,73.779Z" transform="translate(19.498 4.401)"/><path class="h" d="M67.884,47.6h0v0a49.781,49.781,0,0,1,7.821-35.66q.52-.778,1.071-1.538h0A49.8,49.8,0,0,1,40.275,2H39.221a49.833,49.833,0,0,0-8.535,36.7A49.8,49.8,0,0,0,67.882,47.6h0Z" transform="translate(10.033 -2)"/><path class="i" d="M67.728,38.412h0A49.8,49.8,0,0,1,30.53,29.518h0A49.8,49.8,0,0,0,67.725,38.41Z" transform="translate(10.189 7.185)"/><path class="c" d="M58.577,47.594A49.8,49.8,0,0,0,89.991,29.134q.6-.764,1.174-1.555A49.911,49.911,0,0,1,93.772,2H88.261a49.95,49.95,0,0,1-20.78,8.395h-.012q-.55.758-1.071,1.538a49.793,49.793,0,0,0-7.821,35.66" transform="translate(19.34 -2)"/><path class="j" d="M58.577,45.108h0A49.793,49.793,0,0,1,66.4,9.448a49.781,49.781,0,0,0-7.821,35.66" transform="translate(19.34 0.486)"/><path class="f" d="M102.864,60.167h0a49.812,49.812,0,0,0,8.894-37.195A49.89,49.89,0,0,1,95.061,2H92.235a49.894,49.894,0,0,1-9.383,25.579,49.8,49.8,0,0,0,20.012,32.588" transform="translate(27.652 -2)"/><path class="k" d="M100.179,2A49.988,49.988,0,0,1,108.7,22.972,49.89,49.89,0,0,1,92.006,2Z" transform="translate(30.709 -2)"/><path class="l" d="M92.392,2a49.894,49.894,0,0,1-9.383,25.579A49.911,49.911,0,0,1,85.616,2Z" transform="translate(27.496 -2)"/><path class="m" d="M74.219,10.4h0A50.184,50.184,0,0,1,81.9,2H37.719a49.8,49.8,0,0,0,36.5,8.4" transform="translate(12.588 -2)"/><path class="n" d="M85.878,2a49.965,49.965,0,0,1-20.792,8.4A50.184,50.184,0,0,1,72.766,2Z" transform="translate(21.723 -2)"/><path class="o" d="M113.648,92.376c0,3.312-1.594,4.907-3.893,4.907h-2.469V87.377h2.3c2.56,0,4.063,1.81,4.063,5m.844-.016c0-3.512-1.749-5.721-4.954-5.721h-3.05v11.38h3.3C113.051,98.019,114.493,95.566,114.493,92.36Zm-10.825-2.821a2.218,2.218,0,0,1-2.362,2.346H98.331V87.377h2.514C102.778,87.377,103.668,88.3,103.668,89.539Zm1.164,8.48-2.53-5.535a2.938,2.938,0,0,0,2.193-2.976c0-1.565-1.043-2.869-3.541-2.869h-3.42v11.38h.8v-5.4h3.19l2.406,5.4ZM94.314,93.832h-4.34l2.147-6.226Zm2.33,4.187-4.063-11.38h-.89L87.72,98.019h.8l1.2-3.45h4.862l1.226,3.45Zm-8.2-11.38H87.66L85.222,96.807l-2.269-8.94h-.828L79.87,96.777,77.432,86.639H76.6l2.822,11.38h.888l2.225-8.756,2.223,8.756h.89ZM75,93.832H70.657L72.8,87.606Zm2.33,4.187-4.063-11.38h-.89L68.4,98.019h.8l1.2-3.45h4.86l1.227,3.45Zm-12.573,0v-.736H59.417V86.639h-.8v11.38Zm-8.663-5.6c0,3.145-1.456,5.06-3.559,5.06-2.07,0-3.541-1.871-3.541-5.122,0-3.3,1.456-5.167,3.541-5.167,2.115,0,3.557,1.886,3.557,5.228Zm.843-.045c0-3.528-1.641-5.95-4.385-5.95s-4.4,2.407-4.4,6.011c0,3.357,1.671,5.811,4.4,5.811C55.246,98.249,56.932,95.841,56.932,92.376Zm-10.856.045c0,3.145-1.458,5.06-3.557,5.06-2.07,0-3.543-1.871-3.543-5.122,0-3.3,1.456-5.167,3.543-5.167C44.635,87.193,46.077,89.079,46.077,92.421Zm.843-.045c0-3.528-1.642-5.95-4.385-5.95-2.761,0-4.4,2.407-4.4,6.011,0,3.357,1.673,5.811,4.4,5.811C45.232,98.249,46.92,95.841,46.92,92.376ZM36.447,98.019V86.639h-.8v5H29.838v-5h-.8v11.38h.8V92.376h5.811v5.643Zm-8.8-1.871L27,95.657a3.286,3.286,0,0,1-2.913,1.81c-2.071,0-3.7-1.857-3.7-5.107,0-3.3,1.565-5.167,3.7-5.167a3.241,3.241,0,0,1,2.7,1.579l.659-.475A3.8,3.8,0,0,0,24.1,86.426c-2.792,0-4.555,2.407-4.555,6.011,0,3.357,1.718,5.811,4.555,5.811A3.977,3.977,0,0,0,27.645,96.148Zm-9.216-1.134c0-1.8-1.287-2.608-2.622-3.205l-1.074-.476c-1.242-.552-1.962-1.027-1.962-2.1a2.075,2.075,0,0,1,2.3-2.039A3.22,3.22,0,0,1,17.6,88.527l.63-.491a3.663,3.663,0,0,0-3.144-1.61,2.871,2.871,0,0,0-3.173,2.868c0,1.549,1.148,2.193,2.359,2.745l1.075.491c1.287.582,2.222,1.164,2.222,2.592a2.417,2.417,0,0,1-2.5,2.346,3.794,3.794,0,0,1-2.837-1.427l-.6.552a4.4,4.4,0,0,0,3.42,1.657A3.155,3.155,0,0,0,18.429,95.014Z" transform="translate(3.883 26.179)"/><path class="o" d="M133.569,87.671v-2.3h-4.692V76.294h-2.944V87.671ZM120.658,83.3h-2.391l1.18-3.833Zm4.432,4.369-4.08-11.377h-3l-4.049,11.377h2.96l.691-2.238h3.725l.706,2.238Zm-11.976,0V76.294h-2.729v6.363l-3.956-6.363h-2.561V87.671H106.6V81.291l3.956,6.379ZM99.377,82.013c0,2.086-.675,3.619-2.347,3.619-1.655,0-2.33-1.518-2.33-3.633,0-2.131.675-3.649,2.33-3.649C98.7,78.349,99.377,79.867,99.377,82.013Zm3-.015c0-3.7-2.209-5.919-5.336-5.919S91.694,78.3,91.694,82c0,3.664,2.209,5.9,5.351,5.9S102.382,85.662,102.382,82Zm-12.236-5.7H87.2V87.671h2.945Zm-3.925,2.3v-2.3H77.235v2.3h3.021v9.076H83.2V78.594ZM73.952,83.3H71.561l1.179-3.833Zm4.431,4.369L74.306,76.294h-3L67.251,87.671h2.96l.69-2.238h3.727l.7,2.238Zm-11.975,0V76.294h-2.73v6.363l-3.956-6.363h-2.56V87.671h2.729V81.291l3.956,6.379ZM52.563,79.759a1.164,1.164,0,0,1-1.288,1.272h-1.61V78.5h1.518C52.148,78.5,52.563,79.037,52.563,79.759Zm3.389,7.912-2.346-4.906a3.032,3.032,0,0,0,1.915-3.129c0-2.131-1.4-3.342-4.124-3.342H46.719V87.671h2.945V83.179H50.8l1.949,4.492Zm-10.934,0V85.463H40.035V82.719h4.033V80.572H40.035V78.441h4.784V76.294H37.091V87.671Zm-8.847-9.076v-2.3H27.185v2.3h3.021v9.076H33.15V78.594Zm-9.906,9.076V76.294H23.536v6.363l-3.957-6.363h-2.56V87.671h2.729V81.291L23.7,87.671ZM15.04,76.294H12.1V87.671H15.04Z" transform="translate(4.037 22.726)"/><path class="o" d="M25.739,64.663a1.467,1.467,0,0,0-.612-.089H23.961v1.484h1.1a1.552,1.552,0,0,0,.686-.115.693.693,0,0,0,.391-.668.647.647,0,0,0-.4-.612m-.284-2.226a1.131,1.131,0,0,0-.507-.091h-.987v1.4h.93a1.2,1.2,0,0,0,.6-.123.692.692,0,0,0-.04-1.19ZM23.039,66.89V61.514h1.974a2.11,2.11,0,0,1,.93.172,1.341,1.341,0,0,1,.791,1.215,1.216,1.216,0,0,1-.644,1.126v.016a1.18,1.18,0,0,1,.995,1.224,1.541,1.541,0,0,1-1.191,1.508,3.426,3.426,0,0,1-1.027.115Z" transform="translate(7.689 17.864)"/><rect class="p" width="0.922" height="5.376" transform="translate(40.152 79.378)"/><rect class="p" width="0.92" height="5.376" transform="translate(46.844 79.378)"/><path class="o" d="M38.568,61.478a3.674,3.674,0,0,1,1.492.3l-.016.882a3.275,3.275,0,0,0-1.5-.376c-.506,0-.938.155-.938.58,0,1.1,2.765.66,2.765,2.478,0,1-.85,1.639-2.081,1.639a3.389,3.389,0,0,1-1.819-.48l.383-.751a2.817,2.817,0,0,0,1.468.425c.556,0,1.07-.213,1.07-.7,0-1.152-2.741-.646-2.741-2.481,0-.979.783-1.516,1.915-1.516" transform="translate(12.174 17.852)"/><path class="o" d="M43.552,66.89V64.574h-2.61V66.89H40.02V61.514h.922v2.2h2.61v-2.2h.921V66.89Z" transform="translate(13.357 17.864)"/><path class="o" d="M25.2,66.252a3.487,3.487,0,0,1,1.492.317l-.277.784a2.475,2.475,0,0,0-1.118-.268A1.737,1.737,0,0,0,23.64,69,1.716,1.716,0,0,0,25.3,70.927a2.456,2.456,0,0,0,1.118-.269l.277.784a3.487,3.487,0,0,1-1.492.316,2.462,2.462,0,0,1-2.529-2.74A2.537,2.537,0,0,1,25.2,66.252" transform="translate(7.564 19.446)"/><path class="o" d="M40.318,66.252a3.482,3.482,0,0,1,1.492.317l-.277.784a2.47,2.47,0,0,0-1.118-.268A1.737,1.737,0,0,0,38.759,69a1.717,1.717,0,0,0,1.657,1.925,2.451,2.451,0,0,0,1.118-.269l.277.784a3.482,3.482,0,0,1-1.492.316,2.461,2.461,0,0,1-2.529-2.74,2.536,2.536,0,0,1,2.529-2.766" transform="translate(12.611 19.446)"/><path class="o" d="M29.938,69c0-1.175-.67-1.925-1.575-1.925s-1.575.75-1.575,1.933.671,1.925,1.575,1.925,1.575-.75,1.575-1.933m.97-.019a2.551,2.551,0,0,1-2.545,2.774,2.506,2.506,0,0,1-2.545-2.732,2.55,2.55,0,0,1,2.545-2.774,2.507,2.507,0,0,1,2.545,2.732Z" transform="translate(8.617 19.446)"/><path class="o" d="M30.1,69.641V66.289h.92v3.385a1.091,1.091,0,0,0,1.247,1.232c.784,0,1.248-.335,1.248-1.232V66.289h.923v3.352a1.915,1.915,0,0,1-2.186,2.1,1.9,1.9,0,0,1-2.153-2.1" transform="translate(10.047 19.458)"/><path class="o" d="M34.883,67.749h-.016c.016.179.024.465.024.719v3.2h-.923V66.29h1l2.494,3.663h.017c-.017-.18-.023-.465-.023-.719V66.29h.919v5.374h-.814Z" transform="translate(11.336 19.458)"/><rect class="p" width="0.92" height="5.375" transform="translate(55.146 85.747)"/><path class="o" d="M42.668,71.664V66.29h.921v4.543h2.1v.832Z" transform="translate(14.24 19.458)"/><path class="o" d="M35.686,61.515H31.323v.841h1.721V66.89h.921V62.356h1.722Z" transform="translate(10.453 17.865)"/><path class="o" d="M28.421,62.347h-.955v1.631h.914c.66,0,.97-.343.97-.832,0-.44-.285-.8-.928-.8m1.214,4.543c-.783-1.622-.987-2.079-1.312-2.079h-.856V66.89h-.922V61.516h1.818c1.387,0,1.917.734,1.917,1.547a1.37,1.37,0,0,1-.995,1.379v.008c.245.139.506.644,1.4,2.439Z" transform="translate(8.859 17.865)"/><path class="o" d="M17.8,64.22a3.074,3.074,0,1,1-3.073-3.074A3.074,3.074,0,0,1,17.8,64.22" transform="translate(3.889 17.741)"/><path class="o" d="M22.734,64.22a3.074,3.074,0,1,1-3.074-3.074,3.075,3.075,0,0,1,3.074,3.074" transform="translate(5.535 17.741)"/><path class="o" d="M17.8,69.152a3.074,3.074,0,1,1-3.073-3.073A3.074,3.074,0,0,1,17.8,69.152" transform="translate(3.889 19.388)"/><path class="o" d="M22.734,69.152a3.074,3.074,0,1,1-3.074-3.073,3.075,3.075,0,0,1,3.074,3.073" transform="translate(5.535 19.388)"/><text class="q" transform="translate(15.449 136.414)"><tspan x="0" y="0">2020 - 2023</tspan></text></svg>