<svg id="Layer_1" data-name="Layer 1" xmlns="http://www.w3.org/2000/svg" viewBox="0 0 150 150"><defs><style>.cls-1{fill:#ef5a8f;}.cls-2{fill:#119892;}.cls-3{fill:#894288;}.cls-4{fill:#231f20;}.cls-5{fill:#a2238d;}.cls-6{fill:#fff;}.cls-7{fill:gray;}.cls-8{fill:#c7a23d;}</style></defs><path class="cls-1" d="M40.12,58.53v0c-.22-1-1.12-2-4.35-2.47-1.5-.22-1.9-.4-1.9-.82s.38-.7,1.13-.7,1.31.25,1.49.76h3.35c-.15-.94-1-2.75-4.91-2.75-4.26,0-4.59,2.31-4.59,3,0,1.18.5,2.47,4.21,3,1.43.2,2,.37,2,.94,0,.34-.23.73-1.32.73s-1.49-.44-1.67-.85H30.1c.36,1.83,2.25,2.91,5.1,2.91,3.2,0,5-1.11,5-3.12A2.88,2.88,0,0,0,40.12,58.53Z"/><path class="cls-2" d="M34,69h7.1v-.71c0-2.36-1.43-4.89-5.43-4.89s-5.53,2.51-5.53,4.85c0,1.47.54,4.88,5.55,4.88,2.79,0,4.52-1,5.26-2.94H37.37a1.65,1.65,0,0,1-1.61.73,1.75,1.75,0,0,1-1.86-1.78A.14.14,0,0,1,34,69Zm1.71-3.54A1.55,1.55,0,0,1,37.48,67a.13.13,0,0,1,0,.1.18.18,0,0,1-.1,0H34.06a.18.18,0,0,1-.1,0,.13.13,0,0,1,0-.1A1.6,1.6,0,0,1,35.75,65.41Z"/><path class="cls-3" d="M40.63,80.83v-3.2c0-.85,0-3.44-5-3.44-1.41,0-4.65.28-4.9,2.86h3.51c.11-.43.39-.84,1.39-.84s1.44.4,1.44,1.25v.31a.12.12,0,0,1,0,.1.13.13,0,0,1-.1,0H35.2c-3.38,0-5,1-5,3.08,0,1.79,1.37,3,3.5,3,1.57,0,2.65-.39,3.22-1.17a.13.13,0,0,1,.15-.05.14.14,0,0,1,.1.12s0,.11,0,.17.05.49.08.68h3.47C40.67,83.23,40.63,82,40.63,80.83Zm-3.58-.93c0,1.21-.67,1.82-2,1.82-1,0-1.32-.52-1.32-1q0-1.08,1.74-1.08c.77,0,1.27,0,1.45,0a.13.13,0,0,1,.13.14Z"/><path class="cls-1" d="M47.43,58.89A1.47,1.47,0,0,1,45.85,60c-1.16,0-1.74-.91-1.74-2.71s.59-2.61,1.75-2.61a1.43,1.43,0,0,1,1.52,1.19H51c-.17-1.26-1.43-3.39-5.21-3.39-2.72,0-5.46,1.49-5.46,4.83,0,1.47.53,4.9,5.45,4.9,1.37,0,4.6-.33,5.26-3.35Z"/><path class="cls-1" d="M58.42,52.51a3.74,3.74,0,0,0-3,1.2.14.14,0,0,1-.15,0,.14.14,0,0,1-.09-.13V48.87H51.42V62h3.75V57.3c0-1.56.56-2.35,1.66-2.35s1.38.91,1.38,1.71V62H62V56.35C62,53.83,60.76,52.51,58.42,52.51Z"/><path class="cls-1" d="M73.9,57.12a6,6,0,0,0-.07-.61c-.38-2.06-2.17-4-5.59-4s-5.68,1.91-5.68,4.87c0,2.24,1.46,4.86,5.56,4.86,3.24,0,5.31-1.46,5.71-4a4.48,4.48,0,0,0,.07-.64c0-.09,0-.19,0-.29S73.9,57.2,73.9,57.12ZM68.23,60c-1.19,0-1.86-1-1.86-2.63s.65-2.59,1.84-2.59c1.52,0,1.84,1.45,1.84,2.66C70.05,59.07,69.4,60,68.23,60Z"/><path class="cls-1" d="M85.37,57.36a4.4,4.4,0,0,1-2.71,4.31V59.58a.14.14,0,0,0-.14-.14H81a3.06,3.06,0,0,0,.57-2c0-1.21-.32-2.66-1.84-2.66-1.19,0-1.84.92-1.84,2.59a3.08,3.08,0,0,0,.61,2.1.14.14,0,0,0-.09.13v2.57a4,4,0,0,1-.5-.09V59.58a.14.14,0,0,0-.14-.14H74.46a4.76,4.76,0,0,1-.35-1.15,4.66,4.66,0,0,1-.08-.64v-.56a5.79,5.79,0,0,1,.07-.6c.41-2.45,2.52-4,5.61-4C83.6,52.51,85.37,55,85.37,57.36Z"/><path class="cls-1" d="M86,48.87V62h3.76V48.87Z"/><path class="cls-2" d="M48.68,68.06a.12.12,0,0,1,0-.16l3.37-4.3H48.17a26.87,26.87,0,0,0-1.55,2.64.15.15,0,0,1-.12.07h-.06a.16.16,0,0,1-.13-.07,27.08,27.08,0,0,0-1.62-2.64H40.51L44,68.13a.17.17,0,0,1,0,.17l-3.46,4.53h3.92c.78-1.17,1.36-2.14,1.65-2.66a.14.14,0,0,1,.12-.07h.05a.14.14,0,0,1,.11.07l.83,1.3.87,1.36H52.2Z"/><path class="cls-2" d="M58.61,69.73A1.47,1.47,0,0,1,57,70.88c-1.16,0-1.74-.92-1.74-2.71s.59-2.61,1.75-2.61a1.43,1.43,0,0,1,1.52,1.18h3.58c-.17-1.25-1.43-3.39-5.21-3.39-2.72,0-5.46,1.49-5.46,4.83,0,1.47.53,4.9,5.45,4.9,1.37,0,4.6-.33,5.26-3.35Z"/><path class="cls-2" d="M66.16,69h7.1c0-.23,0-.58,0-.71,0-2.36-1.43-4.89-5.43-4.89S62.3,65.86,62.3,68.2a5.51,5.51,0,0,0,.15,1.3l0,.13c.4,1.57,1.65,3.45,5.37,3.45,2.8,0,4.52-1,5.27-2.94H69.5a1.66,1.66,0,0,1-1.62.73A1.74,1.74,0,0,1,66,69.09a.13.13,0,0,1,0-.1A.11.11,0,0,1,66.16,69Zm1.71-3.54A1.56,1.56,0,0,1,69.61,67a.14.14,0,0,1,0,.1.15.15,0,0,1-.1,0H66.19a.15.15,0,0,1-.1,0,.14.14,0,0,1,0-.1A1.6,1.6,0,0,1,67.87,65.41Z"/><rect class="cls-2" x="73.83" y="59.72" width="3.76" height="13.12"/><rect class="cls-2" x="78.63" y="59.72" width="3.76" height="13.12"/><path class="cls-2" d="M86.82,69h7.1v-.71c0-2.36-1.42-4.89-5.43-4.89S83,65.86,83,68.2a5.59,5.59,0,0,0,.39,2.09H86.8a.13.13,0,0,1,.14.13V73a8.37,8.37,0,0,0,1.57.13c2.79,0,4.52-1,5.26-2.94H90.15a1.65,1.65,0,0,1-1.61.73,1.74,1.74,0,0,1-1.85-1.78.12.12,0,0,1,0-.1A.13.13,0,0,1,86.82,69Zm1.71-3.54A1.56,1.56,0,0,1,90.27,67a.21.21,0,0,1,0,.1.18.18,0,0,1-.1,0H86.84a.15.15,0,0,1-.09,0,.14.14,0,0,1,0-.1A1.6,1.6,0,0,1,88.53,65.41Z"/><path class="cls-2" d="M101.43,63.35a3.59,3.59,0,0,0-3,1.25.12.12,0,0,1-.14,0,.12.12,0,0,1-.1-.12v-.09c0-.24,0-.59-.06-.83h-3.7c0,.63,0,1.57,0,2.34v6.89H98.2V68c0-1.48.53-2.21,1.61-2.21.92,0,1.42.61,1.42,1.7v5.34H105V67.11C105,64.72,103.71,63.35,101.43,63.35Z"/><path class="cls-2" d="M112.74,69.73a1.49,1.49,0,0,1-1.59,1.15c-1.16,0-1.74-.92-1.74-2.71s.59-2.61,1.76-2.61a1.44,1.44,0,0,1,1.52,1.18h3.57c-.17-1.25-1.43-3.39-5.21-3.39-2.72,0-5.46,1.49-5.46,4.83,0,1.47.53,4.9,5.46,4.9,1.37,0,4.59-.33,5.25-3.35Z"/><path class="cls-2" d="M120.29,69h7.09c0-.23,0-.58,0-.71,0-2.36-1.43-4.89-5.43-4.89s-5.53,2.51-5.53,4.85a6.16,6.16,0,0,0,.14,1.31l0,.12c.4,1.57,1.65,3.45,5.38,3.45,2.79,0,4.52-1,5.26-2.94h-3.62a1.65,1.65,0,0,1-1.61.73,1.75,1.75,0,0,1-1.86-1.78.13.13,0,0,1,0-.1A.12.12,0,0,1,120.29,69ZM122,65.41A1.55,1.55,0,0,1,123.73,67a.19.19,0,0,1,0,.1.21.21,0,0,1-.1,0h-3.29a.18.18,0,0,1-.1,0,.13.13,0,0,1,0-.1A1.6,1.6,0,0,1,122,65.41Z"/><path class="cls-3" d="M53.69,74.45c-.83,4-1,5.61-1.15,6.46a.14.14,0,0,1-.14.12h0a.14.14,0,0,1-.13-.12c-.16-1-.38-2.22-1.35-6.46H47.42c-.74,3.14-1.06,4.66-1.29,5.77L46,81a.13.13,0,0,1-.13.1h-.05a.14.14,0,0,1-.14-.12c-.12-1-.32-2.33-1.11-6.52H40.6l2.72,9.23h4.17c.6-2.21,1.08-4.23,1.32-5.39a.14.14,0,0,1,.14-.11h0a.13.13,0,0,1,.13.1l.07.34c.24,1.14.52,2.44,1.16,5.06h4.13l2.85-9.23Z"/><path class="cls-3" d="M67.24,80.83v-3.2c0-.85,0-3.44-5-3.44-1.41,0-4.65.28-4.9,2.86h3.51c.11-.43.39-.84,1.39-.84s1.44.4,1.44,1.25v.31a.15.15,0,0,1,0,.1.13.13,0,0,1-.1,0H61.82c-3.38,0-5,1-5,3.08,0,1.79,1.38,3,3.51,3,1.57,0,2.65-.39,3.22-1.17a.13.13,0,0,1,.15-.05.14.14,0,0,1,.1.12s0,.11,0,.18,0,.48.08.67h3.46C67.29,83.23,67.24,82,67.24,80.83Zm-3.57-.93c0,1.21-.67,1.82-2,1.82-1,0-1.32-.52-1.32-1q0-1.08,1.74-1.08c.77,0,1.27,0,1.45,0a.13.13,0,0,1,.13.14Z"/><path class="cls-3" d="M75.5,74.2v3.23h-.17a2.79,2.79,0,0,0-3.27,3.27v3H68.3V77c0-.86,0-1.83,0-2.59h3.66a15.9,15.9,0,0,1,.1,1.67.12.12,0,0,0,.1.13.14.14,0,0,0,.16-.07A3.2,3.2,0,0,1,75.5,74.2Z"/><path class="cls-3" d="M86.67,80.88V70.56H82.89v4.37a.13.13,0,0,1-.08.12.13.13,0,0,1-.15,0A3.33,3.33,0,0,0,80,74.2a4.46,4.46,0,0,0-4.26,2.88c0,.12-.1.25-.14.37l0,.11a.74.74,0,0,0,0,.14,5.21,5.21,0,0,0-.19,1.41c0,2.88,1.76,4.82,4.38,4.82a3.17,3.17,0,0,0,2.92-1.18.12.12,0,0,1,.14,0,.15.15,0,0,1,.1.12c0,.24,0,.58.07.85h3.71C86.67,82.73,86.67,81.42,86.67,80.88Zm-5.53.6c-1.18,0-1.92-.93-1.92-2.42s.76-2.41,1.93-2.41,1.87.78,1.87,2.4S82.35,81.48,81.14,81.48Z"/><path class="cls-3" d="M86.92,80.91a.59.59,0,0,0,0,.14v-.24A.11.11,0,0,0,86.92,80.91Z"/><path class="cls-3" d="M92.88,77.7c-1.49-.22-1.9-.39-1.9-.81s.38-.7,1.14-.7,1.3.25,1.48.76H97C96.8,76,96,74.19,92,74.19c-4.25,0-4.58,2.31-4.58,3,0,1.19.5,2.48,4.21,3,1.42.2,2,.37,2,.94,0,.33-.23.73-1.32.73s-1.5-.44-1.68-.85H87.21c.37,1.82,2.26,2.91,5.1,2.91,3.21,0,5-1.11,5-3.13C97.29,79.54,96.75,78.28,92.88,77.7Z"/><path class="cls-4" d="M86.92,80.91a.59.59,0,0,0,0,.14v-.24A.11.11,0,0,0,86.92,80.91Z"/><path class="cls-5" d="M76.78,89.6a1.52,1.52,0,0,0-1.55,1.55v8.23a1.52,1.52,0,0,0,1.55,1.55h36.57a1.51,1.51,0,0,0,1.54-1.55V91.15a1.52,1.52,0,0,0-1.54-1.55Z"/><path class="cls-6" d="M78,98.64v-.51h.6v-5h1.28v.5h-.63v2a1.72,1.72,0,0,1,.56-.43,1.64,1.64,0,0,1,1.87.39,1.85,1.85,0,0,1,.5,1.32,1.92,1.92,0,0,1-.49,1.34,1.62,1.62,0,0,1-1.23.52,1.45,1.45,0,0,1-.68-.16,2,2,0,0,1-.59-.47v.52Zm1.21-1.56a1.28,1.28,0,0,0,.32.75,1.13,1.13,0,0,0,1.65,0,1.49,1.49,0,0,0,0-1.87,1.1,1.1,0,0,0-1.65,0,1.25,1.25,0,0,0-.3.62h1.71a.71.71,0,0,1,0,.5Zm19,1h.63v.53H97v-.53h.6V95.66H97v-.51h.6v-.76a1.42,1.42,0,0,1,.27-1,1.15,1.15,0,0,1,.88-.29h.2v.51h-.1a.59.59,0,0,0-.46.15.87.87,0,0,0-.12.54v.81h.63v.51h-.63Zm12-5h1.25v5h.61v.51h-1.2v-.52a2,2,0,0,1-.6.47,1.4,1.4,0,0,1-.66.16,1.59,1.59,0,0,1-1.23-.52,1.88,1.88,0,0,1-.49-1.34,1.84,1.84,0,0,1,.49-1.32,1.61,1.61,0,0,1,1.23-.53,1.5,1.5,0,0,1,.64.14,1.72,1.72,0,0,1,.56.43v-2h-.6Zm-1.17,3.44h1.78a1.23,1.23,0,0,0-.29-.62,1,1,0,0,0-.82-.37,1,1,0,0,0-.83.37,1.53,1.53,0,0,0,0,1.87,1.07,1.07,0,0,0,.83.36,1,1,0,0,0,.82-.36,1.27,1.27,0,0,0,.31-.75h-1.8a.71.71,0,0,1,0-.5M84.64,98.64h-1.9v-.53h.61V95.67h-.61v-.52H84v.44a1.93,1.93,0,0,1,.56-.4,1.72,1.72,0,0,1,.64-.15v.54a1.52,1.52,0,0,0-.63.14,2.17,2.17,0,0,0-.55.44v2h.63Zm1.47-3.33a2.42,2.42,0,0,1,.59-.2,2.81,2.81,0,0,1,.65-.07,1.55,1.55,0,0,1,1.12.34,1.47,1.47,0,0,1,.36,1.1v1.63h.57v.53H88.21v-.31a1.79,1.79,0,0,1-.53.31,1.71,1.71,0,0,1-.59.11,1.57,1.57,0,0,1-1-.35,1.32,1.32,0,0,1,0-1.87,1.6,1.6,0,0,1,1.57-.26,2.14,2.14,0,0,1,.56.29v-.34a.58.58,0,0,0-.21-.49,1.06,1.06,0,0,0-.65-.16,2,2,0,0,0-.49.06,1.74,1.74,0,0,0-.45.17Zm1.13,1.41a1,1,0,0,0-.67.21.67.67,0,0,0-.25.54.65.65,0,0,0,.26.54,1.17,1.17,0,0,0,1.34,0,.66.66,0,0,0,.25-.54.65.65,0,0,0-.25-.54,1,1,0,0,0-.68-.21m4.53,1.92H89.89v-.53h.58V95.67h-.58v-.52h1.25v3h.63Zm2.33,0H92.21v-.53h.6V95.66h-.6v-.51h1.23v.5a2.52,2.52,0,0,1,.65-.46,1.57,1.57,0,0,1,.68-.15,1,1,0,0,1,.85.35,2,2,0,0,1,.26,1.13v1.59h.56v.53h-1.8v-.53h.58V96.33a.88.88,0,0,0-.15-.57.54.54,0,0,0-.46-.19,1.11,1.11,0,0,0-.56.16,2.64,2.64,0,0,0-.59.47v1.91h.64Zm8.37-1,.48.25a2,2,0,0,1-.7.67,1.88,1.88,0,0,1-.93.22,1.81,1.81,0,0,1-1.33-.52,1.79,1.79,0,0,1-.53-1.31,1.82,1.82,0,0,1,.53-1.33,1.91,1.91,0,0,1,2.65,0,2,2,0,0,1,.51,1.43v.08h-3a1.3,1.3,0,0,0,.39.82,1.18,1.18,0,0,0,.83.3,1.23,1.23,0,0,0,.61-.15,1.61,1.61,0,0,0,.5-.45m-2.32-1h2.34a1.25,1.25,0,0,0-.4-.74,1.08,1.08,0,0,0-.75-.27,1.15,1.15,0,0,0-.77.27,1.27,1.27,0,0,0-.42.74m6.55,1,.49.25a2,2,0,0,1-.71.67,1.88,1.88,0,0,1-.93.22,1.81,1.81,0,0,1-1.33-.52,1.79,1.79,0,0,1-.53-1.31,1.82,1.82,0,0,1,.53-1.33,1.8,1.8,0,0,1,1.32-.54,1.75,1.75,0,0,1,1.33.53,2,2,0,0,1,.51,1.43v.08h-3a1.24,1.24,0,0,0,.38.82,1.18,1.18,0,0,0,.83.3,1.23,1.23,0,0,0,.61-.15,1.51,1.51,0,0,0,.5-.45m-2.32-1h2.34a1.25,1.25,0,0,0-.4-.74,1.08,1.08,0,0,0-.75-.27,1.15,1.15,0,0,0-.77.27,1.32,1.32,0,0,0-.42.74M90.62,93.79h0a.08.08,0,0,0,0,0,.05.05,0,0,0,0,0l0,0,0,0h0s0,0,0,0h-.09a.15.15,0,0,1,0-.11h0a.18.18,0,0,1,.1,0,.21.21,0,0,1,.11,0h0a.21.21,0,0,1,0,.11.18.18,0,0,1,0,.1h0a.15.15,0,0,1-.11,0Zm0,.4a.46.46,0,0,1-.32-.13h0a.48.48,0,0,1-.13-.32.44.44,0,0,1,.13-.32h0a.46.46,0,0,1,.32-.13.49.49,0,0,1,.33.13.44.44,0,0,1,.13.32H91a.33.33,0,0,0-.1-.23.34.34,0,0,0-.46,0h0a.32.32,0,0,0-.09.23.28.28,0,0,0,.09.22h0a.33.33,0,0,0,.23.1Zm0-1.08a.63.63,0,0,0-.44.18.62.62,0,0,0-.19.45.6.6,0,0,0,.19.44.64.64,0,0,0,.89,0,.64.64,0,0,0,.19-.44h.13a.74.74,0,0,1-.23.53.77.77,0,0,1-1.08,0,.77.77,0,0,1-.22-.53.75.75,0,0,1,.76-.76Zm-1,1.14a1.17,1.17,0,0,1-.09-.24,1.09,1.09,0,0,1,0-.26,1.09,1.09,0,0,1,1.08-1.07,1.08,1.08,0,0,1,.77.32,1,1,0,0,1,.32.75,1,1,0,0,1-.12.49,1.06,1.06,0,0,1-.34.39l-.07-.11a1.05,1.05,0,0,0,.29-.34.88.88,0,0,0,.1-.43.92.92,0,0,0-.27-.66,1,1,0,0,0-.68-.28,1,1,0,0,0-.67.28.93.93,0,0,0-.28.66.85.85,0,0,0,0,.23,1.8,1.8,0,0,0,.08.21Zm-.18.46a1.4,1.4,0,0,1-.24-.43,1.33,1.33,0,0,1-.09-.49,1.49,1.49,0,0,1,.43-1,1.5,1.5,0,0,1,1-.42,1.47,1.47,0,0,1,1,.42,1.44,1.44,0,0,1,.43,1H92a1.28,1.28,0,0,0-.4-.93,1.32,1.32,0,0,0-.94-.39,1.34,1.34,0,0,0-.94.39,1.29,1.29,0,0,0-.31,1.37,1.41,1.41,0,0,0,.22.4Z"/><path class="cls-7" d="M38,100H30.7V98.89l2.93-3A23.54,23.54,0,0,0,35.4,94,5,5,0,0,0,36,92.88a3.31,3.31,0,0,0,.21-1.19,1.88,1.88,0,0,0-.54-1.41,2.06,2.06,0,0,0-1.5-.52A3.8,3.8,0,0,0,32.9,90a5.17,5.17,0,0,0-1.39.83L30.84,90a5.12,5.12,0,0,1,3.35-1.28,3.6,3.6,0,0,1,2.47.8,2.79,2.79,0,0,1,.89,2.16,4.15,4.15,0,0,1-.6,2.1,13.4,13.4,0,0,1-2.22,2.62l-2.44,2.38v.06H38Z"/><path class="cls-7" d="M45.7,94.39a8.18,8.18,0,0,1-.91,4.31A3.09,3.09,0,0,1,42,100.13a3,3,0,0,1-2.73-1.46,7.92,7.92,0,0,1-.94-4.28,8.08,8.08,0,0,1,.91-4.32,3.36,3.36,0,0,1,5.51.06A7.91,7.91,0,0,1,45.7,94.39Zm-6.09,0a8.18,8.18,0,0,0,.57,3.54,2.05,2.05,0,0,0,3.65,0,8.22,8.22,0,0,0,.57-3.53,8.09,8.09,0,0,0-.57-3.51,2.06,2.06,0,0,0-3.65,0A8.1,8.1,0,0,0,39.61,94.39Z"/><path class="cls-7" d="M50.43,100H49.19V92c0-.66,0-1.29.06-1.88a4,4,0,0,1-.36.34c-.13.12-.73.61-1.81,1.48l-.67-.86,3-2.28h1.07Z"/><path class="cls-7" d="M53.7,100l4.62-10H52.25V88.84h7.41v1L55.1,100Z"/><path class="cls-8" d="M28.44,100.28a35.48,35.48,0,0,1-6.64-3c.64-.79,1.84-2.86-.33-5.55,0,0-1.66,2.78-.66,5A32.22,32.22,0,0,1,17,93.92c.37-.37,2.5-2.68-.06-5.86,0,0-2,3.3-.32,5.53a22.79,22.79,0,0,1-4.39-5.13c.62-.28,3.21-1.7,2-5.45,0,0-2.94,2.28-2.34,4.91a17.8,17.8,0,0,1-1.69-4c-.15-.53-.27-1.06-.39-1.58.83-.17,3.41-1,3.23-4.73,0,0-3,1.26-3.45,3.61a27,27,0,0,1-.37-5.94c.93.13,3,.07,4.13-2.81,0,0-2.76,0-4.05,1.63a29.29,29.29,0,0,1,1-5.25c.75.29,3.05.9,4.77-1.94,0,0-3-.57-4.51,1.07a32.28,32.28,0,0,1,2.24-5.34c.81.46,2.81,1.21,4.89-1.08,0,0-2.49-1-4.29,0A26.63,26.63,0,0,1,15.78,58c.31-.39.65-.76,1-1.11.51.36,2.79,1.71,5.16-.91a6,6,0,0,0-4.09-.12,25.38,25.38,0,0,1,3.44-2.59c.74.45,2.82,1.37,5-1a7.41,7.41,0,0,0-2.38-.45,21.6,21.6,0,0,1,2-.91L25.61,50a28.53,28.53,0,0,0-7.95,4.76c.63-1.08,1.4-3.36-1.17-5.93,0,0-2.27,4.84.55,6.49a19.48,19.48,0,0,0-2,2.08,24.9,24.9,0,0,0-1.67,2.28c.35-1.43.2-3.42-2-5.58,0,0-2.72,5.79.71,7.72a33.55,33.55,0,0,0-1.65,3.51c-.08-1.39-.77-3.05-3-4.55,0,0-1.52,6,2,7.38a30.64,30.64,0,0,0-.89,3.92C8.38,70.67,7.45,69,4.79,67.85c0,0-.4,6.45,3.56,6.92A27.55,27.55,0,0,0,8.47,80c-.73-1.53-2.39-3.32-6.18-3.32,0,0,2.38,6.59,6.53,5.51.14.67.3,1.35.49,2s.37,1.17.59,1.73C8.72,84.83,6.75,84,3.6,84.8c0,0,3.88,5.63,7.58,3.74A22,22,0,0,0,14,92.37c-1.5-.6-3.68-.73-6.37,1.23,0,0,5.63,3.81,8.4.74a28.87,28.87,0,0,0,2.72,2.11c-1.59-.26-3.71.08-5.92,2.48,0,0,6.27,2.62,8.38-.91a36.5,36.5,0,0,0,6.93,3.14Z"/><path class="cls-8" d="M121.56,100.28a35.48,35.48,0,0,0,6.64-3c-.64-.79-1.84-2.86.33-5.55,0,0,1.66,2.78.66,5A32.22,32.22,0,0,0,133,93.92c-.37-.37-2.5-2.68.06-5.86,0,0,2,3.3.32,5.53a22.79,22.79,0,0,0,4.39-5.13c-.62-.28-3.21-1.7-2-5.45,0,0,2.94,2.28,2.34,4.91a17.8,17.8,0,0,0,1.69-4c.15-.53.27-1.06.39-1.58-.83-.17-3.41-1-3.23-4.73,0,0,3,1.26,3.45,3.61a27,27,0,0,0,.37-5.94c-.93.13-3,.07-4.13-2.81,0,0,2.76,0,4.05,1.63a29.29,29.29,0,0,0-1-5.25c-.75.29-3.05.9-4.77-1.94,0,0,3-.57,4.51,1.07a32.28,32.28,0,0,0-2.24-5.34c-.81.46-2.81,1.21-4.89-1.08,0,0,2.49-1,4.29,0a26.63,26.63,0,0,0-2.4-3.56c-.31-.39-.65-.76-1-1.11-.51.36-2.79,1.71-5.16-.91a6,6,0,0,1,4.09-.12,25.38,25.38,0,0,0-3.44-2.59c-.74.45-2.82,1.37-5-1a7.41,7.41,0,0,1,2.38-.45,21.6,21.6,0,0,0-2-.91l.32-.86a28.53,28.53,0,0,1,8,4.76c-.63-1.08-1.4-3.36,1.17-5.93,0,0,2.27,4.84-.55,6.49a19.48,19.48,0,0,1,2,2.08,24.9,24.9,0,0,1,1.67,2.28c-.35-1.43-.2-3.42,2-5.58,0,0,2.72,5.79-.71,7.72a33.55,33.55,0,0,1,1.65,3.51c.08-1.39.77-3.05,3-4.55,0,0,1.52,6-2,7.38a30.64,30.64,0,0,1,.89,3.92c.26-1.42,1.19-3.09,3.85-4.24,0,0,.4,6.45-3.56,6.92a27.55,27.55,0,0,1-.12,5.2c.73-1.53,2.39-3.32,6.18-3.32,0,0-2.38,6.59-6.53,5.51-.14.67-.3,1.35-.49,2s-.37,1.17-.59,1.73c1.18-1.08,3.15-1.94,6.3-1.11,0,0-3.88,5.63-7.58,3.74A22,22,0,0,1,136,92.37c1.5-.6,3.68-.73,6.37,1.23,0,0-5.63,3.81-8.4.74a28.87,28.87,0,0,1-2.72,2.11c1.59-.26,3.71.08,5.92,2.48,0,0-6.27,2.62-8.38-.91a36.5,36.5,0,0,1-6.93,3.14Z"/></svg>